<svg width="56" height="55" viewBox="0 0 56 55" fill="none" xmlns="http://www.w3.org/2000/svg">
<path d="M10.1681 39.5938C12.4123 36.8749 16.3169 35.3729 19.6754 34.5518C21.3524 34.1418 22.8886 33.9027 24.0057 33.7659C24.5641 33.6976 25.0177 33.655 25.3313 33.6294C25.4882 33.6166 25.6101 33.6082 25.6927 33.6028C25.7339 33.6002 25.7655 33.5982 25.7864 33.597C25.7891 33.5969 25.7917 33.5967 25.7941 33.5967C25.8015 33.6025 25.8113 33.6117 25.8228 33.6264C25.8419 33.6507 25.8625 33.6856 25.8843 33.7321C25.9279 33.8254 25.9712 33.9573 26.0124 34.1262C26.0949 34.4634 26.1657 34.936 26.2149 35.5139C26.3133 36.669 26.3239 38.2364 26.1688 39.9647C25.8582 43.4246 24.8849 47.5117 22.6392 50.2327C20.3859 52.9627 18.0291 54.3685 15.8113 54.7283C13.5948 55.0878 11.5065 54.4044 9.7834 52.9346C8.06041 51.4647 7.03572 49.4924 6.99906 47.2107C6.96241 44.9278 7.91495 42.3238 10.1681 39.5938Z" fill="#11E4C4"/>
<path d="M33.9488 50.4737C31.5718 47.9173 30.5872 43.8608 30.1999 40.4287C30.0066 38.715 29.9628 37.1616 29.9671 36.0366C29.9694 35.4743 29.9837 35.0191 29.9973 34.7046C30.0043 34.5476 30.011 34.4256 30.0159 34.343C30.0184 34.3018 30.0206 34.2704 30.0221 34.2493C30.0223 34.2466 30.0224 34.2441 30.0226 34.242C30.0292 34.2352 30.0394 34.2265 30.055 34.217C30.0811 34.2011 30.1175 34.1848 30.1657 34.1688C30.2621 34.1371 30.3962 34.11 30.5661 34.0896C30.9053 34.0487 31.3752 34.0357 31.9454 34.057C33.0849 34.0995 34.6162 34.2792 36.284 34.6428C39.6229 35.3707 43.492 36.8322 45.8707 39.3905C48.2574 41.9573 49.3389 44.4663 49.4165 46.7103C49.494 48.953 48.5694 50.9421 46.9221 52.4736C45.2749 54.0048 43.2238 54.7823 40.9923 54.5418C38.7597 54.3013 36.3356 53.0405 33.9488 50.4737Z" fill="#11E4C4"/>
<path d="M35.963 11.4314C36.1299 13.8917 35.4089 16.4834 34.3644 18.8544C33.3203 21.2242 31.9558 23.3672 30.843 24.9281C29.8184 26.3653 27.8269 26.5004 26.6176 25.2148C25.3043 23.8184 23.6628 21.8793 22.3083 19.6722C20.953 17.464 19.8885 14.9935 19.7216 12.5332C19.4685 8.80162 20.1976 5.99868 21.544 4.09269C22.8895 2.18836 24.8563 1.17146 27.0984 1.01936C29.3406 0.867268 31.4268 1.6092 33.017 3.31439C34.6086 5.02107 35.7097 7.69984 35.963 11.4314Z" fill="white" stroke="#11E4C4"/>
<path d="M48.1488 30.7551C43.9014 32.558 38.2308 32.0562 34.6845 31.4561C32.8995 31.1542 31.908 29.3538 32.5973 27.6793C33.3879 25.7583 34.5703 23.253 36.1149 20.991C37.6602 18.7275 39.562 16.7169 41.7878 15.7721C45.1142 14.3601 47.9157 14.1669 50.101 14.8382C52.2846 15.509 53.8631 17.0459 54.7414 19.1151C55.62 21.1845 55.6293 23.3873 54.5952 25.424C53.5602 27.4621 51.4754 29.343 48.1488 30.7551Z" fill="white" stroke="#11E4C4"/>
<path d="M15.1588 16.1178C17.3856 17.1723 19.2935 19.0659 20.851 21.1343C22.4078 23.2017 23.6101 25.4379 24.4279 27.1702C25.1806 28.7652 24.327 30.5675 22.6159 30.9959C20.7576 31.4611 18.2653 31.9479 15.6793 32.0536C13.0922 32.1592 10.4182 31.8832 8.1914 30.8287C4.81424 29.2295 2.72631 27.2259 1.72176 25.1213C0.718092 23.0183 0.791582 20.8059 1.75343 18.775C2.71527 16.7442 4.38055 15.2855 6.64351 14.7294C8.9085 14.1729 11.7816 14.5186 15.1588 16.1178Z" fill="white" stroke="#11E4C4"/>
</svg>
