<svg width="234" height="36" viewBox="0 0 234 36" fill="none" xmlns="http://www.w3.org/2000/svg">
<mask id="path-1-inside-1_93_36763" fill="white">
<path d="M12.0957 9.4082C16.0317 9.4082 19.0877 10.3364 21.2637 12.1924C23.4397 14.0484 24.5283 16.9439 24.5283 20.8799V35.6162H17.5195V32.4053C16.9557 33.3538 16.1884 34.1206 15.2158 34.7041C13.7759 35.568 11.9201 35.9999 9.64844 36C7.63244 36 5.90387 35.6642 4.46387 34.9922C3.02399 34.2882 1.92033 33.344 1.15234 32.1602C0.384344 30.9762 0 29.6478 0 28.1758C3.53371e-05 26.6399 0.367551 25.2955 1.10352 24.1436C1.87152 22.9916 3.07214 22.096 4.7041 21.4561C6.33607 20.7841 8.46397 20.4483 11.0879 20.4482H17.04C17.04 18.8482 16.5438 17.6001 15.5518 16.7041C14.5918 15.8082 13.1038 15.3604 11.0879 15.3604C9.71193 15.3604 8.35178 15.5842 7.00781 16.0322C5.69609 16.4482 4.57631 17.024 3.64844 17.7598L0.959961 12.5283C2.36795 11.5363 4.06387 10.7676 6.04785 10.2236C8.03176 9.67966 10.0478 9.40823 12.0957 9.4082ZM53.2314 12.5283C53.8422 11.8594 54.5291 11.2981 55.2949 10.8477C56.9269 9.88772 58.8309 9.40823 61.0068 9.4082C63.4388 9.4082 65.6152 9.95204 67.5352 11.04C69.4871 12.128 71.0226 13.6645 72.1426 15.6484C73.2945 17.6324 73.8711 19.9842 73.8711 22.7041C73.8711 25.3921 73.2946 27.7279 72.1426 29.7119C71.0226 31.6958 69.4871 33.2482 67.5352 34.3682C65.6152 35.4562 63.4388 36 61.0068 36C58.7349 36 56.7833 35.5195 55.1514 34.5596C54.2922 34.0542 53.5409 33.4102 52.8945 32.6299V35.6162H45.7432V0H53.2314V12.5283ZM88.877 9.4082C92.813 9.4082 95.8689 10.3364 98.0449 12.1924C100.221 14.0484 101.309 16.944 101.309 20.8799V35.6162H94.3008V32.4053C93.7369 33.3538 92.9697 34.1205 91.9971 34.7041C90.5571 35.5681 88.7007 36 86.4287 36C84.4129 36 82.685 35.6641 81.2451 34.9922C79.8051 34.2882 78.7006 33.3442 77.9326 32.1602C77.1646 30.9762 76.7812 29.6478 76.7812 28.1758C76.7813 26.6399 77.1488 25.2955 77.8848 24.1436C78.6528 22.9917 79.8534 22.096 81.4854 21.4561C83.1173 20.7841 85.2453 20.4482 87.8691 20.4482H93.8213C93.8213 18.8483 93.325 17.6001 92.333 16.7041C91.373 15.8081 89.8851 15.3604 87.8691 15.3604C86.4931 15.3604 85.1331 15.5842 83.7891 16.0322C82.4771 16.4482 81.3567 17.0238 80.4287 17.7598L77.7412 12.5283C79.1492 11.5363 80.8451 10.7676 82.8291 10.2236C84.813 9.67967 86.829 9.40821 88.877 9.4082ZM38.793 35.6162H31.3047V0H38.793V35.6162ZM11.9043 24.8164C10.1444 24.8164 8.92787 25.1037 8.25586 25.6797C7.6159 26.2557 7.29594 26.9759 7.2959 27.8398C7.2959 28.7998 7.66439 29.5676 8.40039 30.1436C9.1683 30.6875 10.2078 30.9599 11.5195 30.96C12.7675 30.96 13.8879 30.6717 14.8799 30.0957C15.8718 29.4877 16.592 28.608 17.04 27.4561V24.8164H11.9043ZM88.6846 24.8164C86.925 24.8165 85.7091 25.1039 85.0371 25.6797C84.3971 26.2557 84.0772 26.9759 84.0771 27.8398C84.0771 28.7997 84.4449 29.5676 85.1807 30.1436C85.9486 30.6875 86.9889 30.9599 88.3008 30.96C89.5488 30.96 90.6691 30.6717 91.6611 30.0957C92.653 29.4877 93.3733 28.608 93.8213 27.4561V24.8164H88.6846ZM59.7109 15.5518C58.463 15.5518 57.3426 15.84 56.3506 16.416C55.3587 16.992 54.575 17.8084 53.999 18.8643C53.4231 19.9202 53.1348 21.2002 53.1348 22.7041C53.1348 24.176 53.423 25.456 53.999 26.5439C54.575 27.5999 55.3587 28.4162 56.3506 28.9922C57.3426 29.5682 58.463 29.8564 59.7109 29.8564C60.9589 29.8564 62.0634 29.5682 63.0234 28.9922C64.0153 28.4162 64.799 27.5999 65.375 26.5439C65.983 25.456 66.2861 24.176 66.2861 22.7041C66.2861 21.2002 65.9829 19.9202 65.375 18.8643C64.7991 17.8084 64.0153 16.992 63.0234 16.416C62.0634 15.84 60.9589 15.5518 59.7109 15.5518Z"/>
</mask>
<path d="M12.0957 9.4082C16.0317 9.4082 19.0877 10.3364 21.2637 12.1924C23.4397 14.0484 24.5283 16.9439 24.5283 20.8799V35.6162H17.5195V32.4053C16.9557 33.3538 16.1884 34.1206 15.2158 34.7041C13.7759 35.568 11.9201 35.9999 9.64844 36C7.63244 36 5.90387 35.6642 4.46387 34.9922C3.02399 34.2882 1.92033 33.344 1.15234 32.1602C0.384344 30.9762 0 29.6478 0 28.1758C3.53371e-05 26.6399 0.367551 25.2955 1.10352 24.1436C1.87152 22.9916 3.07214 22.096 4.7041 21.4561C6.33607 20.7841 8.46397 20.4483 11.0879 20.4482H17.04C17.04 18.8482 16.5438 17.6001 15.5518 16.7041C14.5918 15.8082 13.1038 15.3604 11.0879 15.3604C9.71193 15.3604 8.35178 15.5842 7.00781 16.0322C5.69609 16.4482 4.57631 17.024 3.64844 17.7598L0.959961 12.5283C2.36795 11.5363 4.06387 10.7676 6.04785 10.2236C8.03176 9.67966 10.0478 9.40823 12.0957 9.4082ZM53.2314 12.5283C53.8422 11.8594 54.5291 11.2981 55.2949 10.8477C56.9269 9.88772 58.8309 9.40823 61.0068 9.4082C63.4388 9.4082 65.6152 9.95204 67.5352 11.04C69.4871 12.128 71.0226 13.6645 72.1426 15.6484C73.2945 17.6324 73.8711 19.9842 73.8711 22.7041C73.8711 25.3921 73.2946 27.7279 72.1426 29.7119C71.0226 31.6958 69.4871 33.2482 67.5352 34.3682C65.6152 35.4562 63.4388 36 61.0068 36C58.7349 36 56.7833 35.5195 55.1514 34.5596C54.2922 34.0542 53.5409 33.4102 52.8945 32.6299V35.6162H45.7432V0H53.2314V12.5283ZM88.877 9.4082C92.813 9.4082 95.8689 10.3364 98.0449 12.1924C100.221 14.0484 101.309 16.944 101.309 20.8799V35.6162H94.3008V32.4053C93.7369 33.3538 92.9697 34.1205 91.9971 34.7041C90.5571 35.5681 88.7007 36 86.4287 36C84.4129 36 82.685 35.6641 81.2451 34.9922C79.8051 34.2882 78.7006 33.3442 77.9326 32.1602C77.1646 30.9762 76.7812 29.6478 76.7812 28.1758C76.7813 26.6399 77.1488 25.2955 77.8848 24.1436C78.6528 22.9917 79.8534 22.096 81.4854 21.4561C83.1173 20.7841 85.2453 20.4482 87.8691 20.4482H93.8213C93.8213 18.8483 93.325 17.6001 92.333 16.7041C91.373 15.8081 89.8851 15.3604 87.8691 15.3604C86.4931 15.3604 85.1331 15.5842 83.7891 16.0322C82.4771 16.4482 81.3567 17.0238 80.4287 17.7598L77.7412 12.5283C79.1492 11.5363 80.8451 10.7676 82.8291 10.2236C84.813 9.67967 86.829 9.40821 88.877 9.4082ZM38.793 35.6162H31.3047V0H38.793V35.6162ZM11.9043 24.8164C10.1444 24.8164 8.92787 25.1037 8.25586 25.6797C7.6159 26.2557 7.29594 26.9759 7.2959 27.8398C7.2959 28.7998 7.66439 29.5676 8.40039 30.1436C9.1683 30.6875 10.2078 30.9599 11.5195 30.96C12.7675 30.96 13.8879 30.6717 14.8799 30.0957C15.8718 29.4877 16.592 28.608 17.04 27.4561V24.8164H11.9043ZM88.6846 24.8164C86.925 24.8165 85.7091 25.1039 85.0371 25.6797C84.3971 26.2557 84.0772 26.9759 84.0771 27.8398C84.0771 28.7997 84.4449 29.5676 85.1807 30.1436C85.9486 30.6875 86.9889 30.9599 88.3008 30.96C89.5488 30.96 90.6691 30.6717 91.6611 30.0957C92.653 29.4877 93.3733 28.608 93.8213 27.4561V24.8164H88.6846ZM59.7109 15.5518C58.463 15.5518 57.3426 15.84 56.3506 16.416C55.3587 16.992 54.575 17.8084 53.999 18.8643C53.4231 19.9202 53.1348 21.2002 53.1348 22.7041C53.1348 24.176 53.423 25.456 53.999 26.5439C54.575 27.5999 55.3587 28.4162 56.3506 28.9922C57.3426 29.5682 58.463 29.8564 59.7109 29.8564C60.9589 29.8564 62.0634 29.5682 63.0234 28.9922C64.0153 28.4162 64.799 27.5999 65.375 26.5439C65.983 25.456 66.2861 24.176 66.2861 22.7041C66.2861 21.2002 65.9829 19.9202 65.375 18.8643C64.7991 17.8084 64.0153 16.992 63.0234 16.416C62.0634 15.84 60.9589 15.5518 59.7109 15.5518Z" fill="white"/>
<path d="M12.0957 9.4082L12.0957 8.4082L12.0957 8.4082L12.0957 9.4082ZM21.2637 12.1924L21.9126 11.4315L21.9126 11.4315L21.2637 12.1924ZM24.5283 20.8799L25.5283 20.8799L25.5283 20.8799L24.5283 20.8799ZM24.5283 35.6162V36.6162H25.5283V35.6162H24.5283ZM17.5195 35.6162H16.5195V36.6162H17.5195V35.6162ZM17.5195 32.4053H18.5195V28.7662L16.66 31.8943L17.5195 32.4053ZM15.2158 34.7041L15.7303 35.5616L15.7303 35.5616L15.2158 34.7041ZM9.64844 36L9.64844 37L9.64846 37L9.64844 36ZM4.46387 34.9922L4.02465 35.8906L4.03278 35.8945L4.04098 35.8984L4.46387 34.9922ZM1.15234 32.1602L0.313382 32.7043L0.313406 32.7044L1.15234 32.1602ZM0 28.1758L-1 28.1758V28.1758H0ZM1.10352 24.1436L0.271475 23.5888L0.266068 23.597L0.260819 23.6052L1.10352 24.1436ZM4.7041 21.4561L5.06919 22.387L5.07704 22.3839L5.08484 22.3807L4.7041 21.4561ZM11.0879 20.4482L11.0879 19.4482L11.0879 19.4482L11.0879 20.4482ZM17.04 20.4482V21.4482H18.04V20.4482H17.04ZM15.5518 16.7041L14.8695 17.4352L14.8754 17.4407L14.8815 17.4462L15.5518 16.7041ZM11.0879 15.3604L11.0879 14.3604L11.0879 14.3604L11.0879 15.3604ZM7.00781 16.0322L7.31007 16.9855L7.31707 16.9832L7.32404 16.9809L7.00781 16.0322ZM3.64844 17.7598L2.75901 18.2168L3.31563 19.3L4.26979 18.5433L3.64844 17.7598ZM0.959961 12.5283L0.384007 11.7108L-0.327027 12.2118L0.0705362 12.9854L0.959961 12.5283ZM6.04785 10.2236L5.78342 9.25923L5.78342 9.25923L6.04785 10.2236ZM53.2314 12.5283H52.2314V15.1065L53.9699 13.2026L53.2314 12.5283ZM55.2949 10.8477L54.7879 9.98572L54.7879 9.98572L55.2949 10.8477ZM61.0068 9.4082L61.0068 8.4082L61.0068 8.4082L61.0068 9.4082ZM67.5352 11.04L67.0421 11.9101L67.0483 11.9135L67.5352 11.04ZM72.1426 15.6484L71.2717 16.1401L71.2778 16.1506L72.1426 15.6484ZM73.8711 22.7041L74.8711 22.7041V22.7041H73.8711ZM72.1426 29.7119L71.2777 29.2097L71.2718 29.2203L72.1426 29.7119ZM67.5352 34.3682L68.0282 35.2382L68.0328 35.2355L67.5352 34.3682ZM61.0068 36L61.0068 37H61.0068V36ZM55.1514 34.5596L54.6443 35.4215L54.6444 35.4215L55.1514 34.5596ZM52.8945 32.6299L53.6647 31.992L51.8945 29.8548V32.6299H52.8945ZM52.8945 35.6162V36.6162H53.8945V35.6162H52.8945ZM45.7432 35.6162H44.7432V36.6162H45.7432V35.6162ZM45.7432 0V-1H44.7432V0H45.7432ZM53.2314 0H54.2314V-1H53.2314V0ZM88.877 9.4082L88.877 8.4082L88.877 8.4082L88.877 9.4082ZM98.0449 12.1924L98.6939 11.4316L98.6939 11.4315L98.0449 12.1924ZM101.309 20.8799L102.309 20.8799L102.309 20.8799L101.309 20.8799ZM101.309 35.6162V36.6162H102.309V35.6162H101.309ZM94.3008 35.6162H93.3008V36.6162H94.3008V35.6162ZM94.3008 32.4053H95.3008V28.766L93.4412 31.8943L94.3008 32.4053ZM91.9971 34.7041L92.5116 35.5616L92.5116 35.5616L91.9971 34.7041ZM86.4287 36L86.4287 37H86.4287V36ZM81.2451 34.9922L80.8059 35.8906L80.814 35.8945L80.8223 35.8984L81.2451 34.9922ZM77.9326 32.1602L77.0937 32.7043L77.0937 32.7043L77.9326 32.1602ZM76.7812 28.1758L75.7812 28.1758V28.1758H76.7812ZM77.8848 24.1436L77.0527 23.5888L77.0473 23.5969L77.0421 23.6052L77.8848 24.1436ZM81.4854 21.4561L81.8504 22.387L81.8583 22.384L81.8661 22.3807L81.4854 21.4561ZM93.8213 20.4482V21.4482H94.8213V20.4482H93.8213ZM92.333 16.7041L91.6507 17.4352L91.6567 17.4407L91.6627 17.4462L92.333 16.7041ZM87.8691 15.3604L87.8692 14.3604H87.8691V15.3604ZM83.7891 16.0322L84.0913 16.9855L84.0983 16.9832L84.1053 16.9809L83.7891 16.0322ZM80.4287 17.7598L79.5392 18.2167L80.0958 19.3001L81.0501 18.5433L80.4287 17.7598ZM77.7412 12.5283L77.1653 11.7108L76.4543 12.2117L76.8517 12.9853L77.7412 12.5283ZM82.8291 10.2236L82.5647 9.25923L82.5647 9.25923L82.8291 10.2236ZM38.793 35.6162V36.6162H39.793V35.6162H38.793ZM31.3047 35.6162H30.3047V36.6162H31.3047V35.6162ZM31.3047 0V-1H30.3047V0H31.3047ZM38.793 0H39.793V-1H38.793V0ZM8.25586 25.6797L7.6051 24.9204L7.5959 24.9283L7.58689 24.9364L8.25586 25.6797ZM7.2959 27.8398L6.2959 27.8398V27.8398H7.2959ZM8.40039 30.1436L7.78408 30.9311L7.80289 30.9458L7.82239 30.9596L8.40039 30.1436ZM11.5195 30.96L11.5195 31.96H11.5195V30.96ZM14.8799 30.0957L15.382 30.9605L15.3923 30.9545L15.4025 30.9483L14.8799 30.0957ZM17.04 27.4561L17.972 27.8185L18.04 27.6437V27.4561H17.04ZM17.04 24.8164H18.04V23.8164H17.04V24.8164ZM88.6846 24.8164L88.6846 23.8164L88.6845 23.8164L88.6846 24.8164ZM85.0371 25.6797L84.3864 24.9203L84.3772 24.9283L84.3681 24.9364L85.0371 25.6797ZM84.0771 27.8398L83.0771 27.8398V27.8398H84.0771ZM85.1807 30.1436L84.5642 30.931L84.5831 30.9457L84.6026 30.9596L85.1807 30.1436ZM88.3008 30.96L88.3008 31.96H88.3008V30.96ZM91.6611 30.0957L92.1633 30.9605L92.1736 30.9545L92.1837 30.9483L91.6611 30.0957ZM93.8213 27.4561L94.7533 27.8185L94.8213 27.6437V27.4561H93.8213ZM93.8213 24.8164H94.8213V23.8164H93.8213V24.8164ZM59.7109 15.5518L59.7109 14.5518L59.7109 14.5518L59.7109 15.5518ZM56.3506 16.416L55.8485 15.5512L55.8484 15.5513L56.3506 16.416ZM53.999 18.8643L53.1211 18.3854L53.1211 18.3854L53.999 18.8643ZM53.1348 22.7041L52.1348 22.7041L52.1348 22.7041L53.1348 22.7041ZM53.999 26.5439L53.1152 27.0119L53.1211 27.0228L53.999 26.5439ZM56.3506 28.9922L55.8484 29.857L55.8485 29.857L56.3506 28.9922ZM59.7109 29.8564L59.7109 30.8564H59.7109V29.8564ZM63.0234 28.9922L62.5213 28.1274L62.5151 28.131L62.5089 28.1347L63.0234 28.9922ZM65.375 26.5439L64.502 26.0561L64.4971 26.0651L65.375 26.5439ZM66.2861 22.7041L67.2861 22.7041V22.7041H66.2861ZM65.375 18.8643L64.4971 19.3431L64.5026 19.3532L64.5084 19.3632L65.375 18.8643ZM63.0234 16.416L62.5089 17.2735L62.5151 17.2772L62.5212 17.2808L63.0234 16.416ZM12.0957 9.4082V10.4082C15.8831 10.4082 18.6777 11.301 20.6147 12.9532L21.2637 12.1924L21.9126 11.4315C19.4977 9.37173 16.1803 8.4082 12.0957 8.4082V9.4082ZM21.2637 12.1924L20.6147 12.9532C22.4931 14.5554 23.5283 17.1215 23.5283 20.8799L24.5283 20.8799L25.5283 20.8799C25.5283 16.7664 24.3862 13.5414 21.9126 11.4315L21.2637 12.1924ZM24.5283 20.8799H23.5283V35.6162H24.5283H25.5283V20.8799H24.5283ZM24.5283 35.6162V34.6162H17.5195V35.6162V36.6162H24.5283V35.6162ZM17.5195 35.6162H18.5195V32.4053H17.5195H16.5195V35.6162H17.5195ZM17.5195 32.4053L16.66 31.8943C16.1827 32.6971 15.5354 33.3461 14.7013 33.8466L15.2158 34.7041L15.7303 35.5616C16.8414 34.895 17.7286 34.0105 18.3791 32.9163L17.5195 32.4053ZM15.2158 34.7041L14.7013 33.8466C13.4624 34.5899 11.8006 34.9999 9.64841 35L9.64844 36L9.64846 37C12.0397 36.9999 14.0895 36.546 15.7303 35.5616L15.2158 34.7041ZM9.64844 36V35C7.74044 35 6.16367 34.6819 4.88675 34.086L4.46387 34.9922L4.04098 35.8984C5.64407 36.6465 7.52443 37 9.64844 37V36ZM4.46387 34.9922L4.90308 34.0938C3.60369 33.4585 2.64786 32.6281 1.99128 31.6159L1.15234 32.1602L0.313406 32.7044C1.1928 34.06 2.44429 35.1179 4.02465 35.8906L4.46387 34.9922ZM1.15234 32.1602L1.99131 31.616C1.33302 30.6011 1 29.4633 1 28.1758H0H-1C-1 29.8323 -0.56433 31.3512 0.313382 32.7043L1.15234 32.1602ZM0 28.1758L1 28.1758C1.00003 26.8061 1.32546 25.6536 1.94621 24.6819L1.10352 24.1436L0.260819 23.6052C-0.590354 24.9374 -0.999961 26.4737 -1 28.1758L0 28.1758ZM1.10352 24.1436L1.93556 24.6983C2.56298 23.7572 3.57655 22.9724 5.06919 22.387L4.7041 21.4561L4.33901 20.5251C2.56774 21.2197 1.18005 22.226 0.271475 23.5888L1.10352 24.1436ZM4.7041 21.4561L5.08484 22.3807C6.55213 21.7766 8.5368 21.4483 11.0879 21.4482L11.0879 20.4482L11.0879 19.4482C8.39115 19.4483 6.12001 19.7916 4.32336 20.5314L4.7041 21.4561ZM11.0879 20.4482V21.4482H17.04V20.4482V19.4482H11.0879V20.4482ZM17.04 20.4482H18.04C18.04 18.6259 17.465 17.0847 16.222 15.962L15.5518 16.7041L14.8815 17.4462C15.6225 18.1155 16.04 19.0706 16.04 20.4482H17.04ZM15.5518 16.7041L16.2341 15.973C15.0111 14.8317 13.2257 14.3604 11.0879 14.3604V15.3604V16.3604C12.982 16.3604 14.1724 16.7846 14.8695 17.4352L15.5518 16.7041ZM11.0879 15.3604L11.0879 14.3604C9.60134 14.3604 8.13453 14.6026 6.69158 15.0835L7.00781 16.0322L7.32404 16.9809C8.56902 16.5659 9.82251 16.3604 11.0879 16.3604L11.0879 15.3604ZM7.00781 16.0322L6.70555 15.079C5.29654 15.5258 4.06424 16.1538 3.02709 16.9762L3.64844 17.7598L4.26979 18.5433C5.08838 17.8941 6.09564 17.3705 7.31007 16.9855L7.00781 16.0322ZM3.64844 17.7598L4.53786 17.3027L1.84939 12.0712L0.959961 12.5283L0.0705362 12.9854L2.75901 18.2168L3.64844 17.7598ZM0.959961 12.5283L1.53591 13.3458C2.83315 12.4318 4.419 11.7072 6.31229 11.188L6.04785 10.2236L5.78342 9.25923C3.70874 9.8281 1.90276 10.6408 0.384007 11.7108L0.959961 12.5283ZM6.04785 10.2236L6.31228 11.188C8.21024 10.6676 10.1374 10.4082 12.0957 10.4082L12.0957 9.4082L12.0957 8.4082C9.95824 8.40823 7.85327 8.69169 5.78342 9.25923L6.04785 10.2236ZM53.2314 12.5283L53.9699 13.2026C54.5158 12.6048 55.1253 12.1076 55.8019 11.7096L55.2949 10.8477L54.7879 9.98572C53.9329 10.4886 53.1687 11.114 52.493 11.854L53.2314 12.5283ZM55.2949 10.8477L55.8019 11.7096C57.2583 10.8529 58.982 10.4082 61.0068 10.4082L61.0068 9.4082L61.0068 8.4082C58.6799 8.40823 56.5954 8.92251 54.7879 9.98572L55.2949 10.8477ZM61.0068 9.4082V10.4082C63.2842 10.4082 65.2875 10.9158 67.0421 11.9101L67.5352 11.04L68.0282 10.17C65.9428 8.9883 63.5935 8.4082 61.0068 8.4082V9.4082ZM67.5352 11.04L67.0483 11.9135C68.8361 12.91 70.2402 14.3128 71.2718 16.14L72.1426 15.6484L73.0134 15.1568C71.805 13.0162 70.1381 11.346 68.022 10.1666L67.5352 11.04ZM72.1426 15.6484L71.2778 16.1506C72.3261 17.956 72.8711 20.1278 72.8711 22.7041H73.8711H74.8711C74.8711 19.8405 74.263 17.3088 73.0074 15.1463L72.1426 15.6484ZM73.8711 22.7041L72.8711 22.7041C72.8711 25.2461 72.3271 27.4026 71.2778 29.2098L72.1426 29.7119L73.0074 30.214C74.262 28.0533 74.8711 25.5381 74.8711 22.7041L73.8711 22.7041ZM72.1426 29.7119L71.2718 29.2203C70.2389 31.0499 68.8314 32.4715 67.0375 33.5008L67.5352 34.3682L68.0328 35.2355C70.1428 34.0249 71.8063 32.3418 73.0134 30.2035L72.1426 29.7119ZM67.5352 34.3682L67.0421 33.4981C65.2875 34.4924 63.2842 35 61.0068 35V36V37C63.5935 37 65.9428 36.4199 68.0282 35.2382L67.5352 34.3682ZM61.0068 36L61.0068 35C58.8777 35 57.1087 34.5507 55.6584 33.6976L55.1514 34.5596L54.6444 35.4215C56.458 36.4883 58.5922 37 61.0068 37L61.0068 36ZM55.1514 34.5596L55.6584 33.6976C54.9019 33.2527 54.239 32.6854 53.6647 31.992L52.8945 32.6299L52.1244 33.2678C52.8427 34.1351 53.6824 34.8557 54.6443 35.4215L55.1514 34.5596ZM52.8945 32.6299H51.8945V35.6162H52.8945H53.8945V32.6299H52.8945ZM52.8945 35.6162V34.6162H45.7432V35.6162V36.6162H52.8945V35.6162ZM45.7432 35.6162H46.7432V0H45.7432H44.7432V35.6162H45.7432ZM45.7432 0V1H53.2314V0V-1H45.7432V0ZM53.2314 0H52.2314V12.5283H53.2314H54.2314V0H53.2314ZM88.877 9.4082V10.4082C92.6644 10.4082 95.4589 11.301 97.396 12.9532L98.0449 12.1924L98.6939 11.4315C96.2789 9.37173 92.9616 8.4082 88.877 8.4082V9.4082ZM98.0449 12.1924L97.396 12.9532C99.2741 14.5552 100.309 17.1213 100.309 20.8799L101.309 20.8799L102.309 20.8799C102.309 16.7667 101.167 13.5415 98.6939 11.4316L98.0449 12.1924ZM101.309 20.8799H100.309V35.6162H101.309H102.309V20.8799H101.309ZM101.309 35.6162V34.6162H94.3008V35.6162V36.6162H101.309V35.6162ZM94.3008 35.6162H95.3008V32.4053H94.3008H93.3008V35.6162H94.3008ZM94.3008 32.4053L93.4412 31.8943C92.964 32.6971 92.3167 33.3461 91.4826 33.8466L91.9971 34.7041L92.5116 35.5616C93.6226 34.8949 94.5099 34.0105 95.1604 32.9163L94.3008 32.4053ZM91.9971 34.7041L91.4826 33.8466C90.2436 34.59 88.5813 35 86.4287 35V36V37C88.8201 37 90.8705 36.5462 92.5116 35.5616L91.9971 34.7041ZM86.4287 36L86.4287 35C84.521 35 82.9449 34.6818 81.668 34.086L81.2451 34.9922L80.8223 35.8984C82.4252 36.6464 84.3048 37 86.4287 37L86.4287 36ZM81.2451 34.9922L81.6843 34.0938C80.3845 33.4583 79.428 32.6279 78.7716 31.616L77.9326 32.1602L77.0937 32.7043C77.9732 34.0604 79.2257 35.118 80.8059 35.8906L81.2451 34.9922ZM77.9326 32.1602L78.7716 31.616C78.1136 30.6015 77.7812 29.4637 77.7812 28.1758H76.7812H75.7812C75.7812 29.8318 76.2157 31.3508 77.0937 32.7043L77.9326 32.1602ZM76.7812 28.1758L77.7812 28.1758C77.7813 26.8061 78.1067 25.6536 78.7275 24.6819L77.8848 24.1436L77.0421 23.6052C76.1909 24.9374 75.7813 26.4737 75.7813 28.1758L76.7812 28.1758ZM77.8848 24.1436L78.7168 24.6983C79.3442 23.7572 80.3579 22.9723 81.8504 22.387L81.4854 21.4561L81.1203 20.5251C79.349 21.2197 77.9613 22.2261 77.0527 23.5888L77.8848 24.1436ZM81.4854 21.4561L81.8661 22.3807C83.3334 21.7766 85.3181 21.4482 87.8691 21.4482V20.4482V19.4482C85.1724 19.4482 82.9013 19.7916 81.1046 20.5314L81.4854 21.4561ZM87.8691 20.4482V21.4482H93.8213V20.4482V19.4482H87.8691V20.4482ZM93.8213 20.4482H94.8213C94.8213 18.6259 94.2462 17.0847 93.0033 15.962L92.333 16.7041L91.6627 17.4462C92.4037 18.1155 92.8213 19.0706 92.8213 20.4482H93.8213ZM92.333 16.7041L93.0153 15.973C91.7924 14.8316 90.0069 14.3604 87.8692 14.3604L87.8691 15.3604L87.8691 16.3604C89.7633 16.3604 90.9537 16.7846 91.6507 17.4352L92.333 16.7041ZM87.8691 15.3604V14.3604C86.3826 14.3604 84.9158 14.6026 83.4728 15.0835L83.7891 16.0322L84.1053 16.9809C85.3503 16.5659 86.6037 16.3604 87.8691 16.3604V15.3604ZM83.7891 16.0322L83.4868 15.079C82.0778 15.5258 80.8448 16.1534 79.8073 16.9763L80.4287 17.7598L81.0501 18.5433C81.8686 17.8941 82.8763 17.3707 84.0913 16.9855L83.7891 16.0322ZM80.4287 17.7598L81.3182 17.3028L78.6307 12.0714L77.7412 12.5283L76.8517 12.9853L79.5392 18.2167L80.4287 17.7598ZM77.7412 12.5283L78.3172 13.3458C79.6144 12.4318 81.2002 11.7072 83.0935 11.188L82.8291 10.2236L82.5647 9.25923C80.49 9.8281 78.684 10.6408 77.1653 11.7108L77.7412 12.5283ZM82.8291 10.2236L83.0935 11.188C84.9915 10.6676 86.9186 10.4082 88.877 10.4082L88.877 9.4082L88.877 8.4082C86.7395 8.40821 84.6345 8.69171 82.5647 9.25923L82.8291 10.2236ZM38.793 35.6162V34.6162H31.3047V35.6162V36.6162H38.793V35.6162ZM31.3047 35.6162H32.3047V0H31.3047H30.3047V35.6162H31.3047ZM31.3047 0V1H38.793V0V-1H31.3047V0ZM38.793 0H37.793V35.6162H38.793H39.793V0H38.793ZM11.9043 24.8164V23.8164C10.1073 23.8164 8.56806 24.0951 7.6051 24.9204L8.25586 25.6797L8.90661 26.439C9.28769 26.1124 10.1814 25.8164 11.9043 25.8164V24.8164ZM8.25586 25.6797L7.58689 24.9364C6.73529 25.7028 6.29595 26.6937 6.2959 27.8398L7.2959 27.8398L8.2959 27.8399C8.29592 27.2582 8.4965 26.8085 8.92482 26.423L8.25586 25.6797ZM7.2959 27.8398H6.2959C6.2959 29.0981 6.7987 30.1599 7.78408 30.9311L8.40039 30.1436L9.0167 29.356C8.53008 28.9752 8.2959 28.5016 8.2959 27.8398H7.2959ZM8.40039 30.1436L7.82239 30.9596C8.81383 31.6618 10.0795 31.9599 11.5195 31.96L11.5195 30.96L11.5196 29.96C10.3361 29.9599 9.52276 29.7131 8.97839 29.3275L8.40039 30.1436ZM11.5195 30.96V31.96C12.928 31.96 14.2243 31.6327 15.382 30.9605L14.8799 30.0957L14.3777 29.2309C13.5515 29.7107 12.607 29.96 11.5195 29.96V30.96ZM14.8799 30.0957L15.4025 30.9483C16.5927 30.2188 17.45 29.1609 17.972 27.8185L17.04 27.4561L16.108 27.0936C15.7341 28.0552 15.151 28.7566 14.3573 29.2431L14.8799 30.0957ZM17.04 27.4561H18.04V24.8164H17.04H16.04V27.4561H17.04ZM17.04 24.8164V23.8164H11.9043V24.8164V25.8164H17.04V24.8164ZM88.6846 24.8164L88.6845 23.8164C86.8877 23.8165 85.3493 24.0953 84.3864 24.9203L85.0371 25.6797L85.6878 26.439C86.0689 26.1124 86.9622 25.8165 88.6846 25.8164L88.6846 24.8164ZM85.0371 25.6797L84.3681 24.9364C83.5165 25.7028 83.0772 26.6937 83.0771 27.8398L84.0771 27.8398L85.0771 27.8399C85.0772 27.2582 85.2778 26.8085 85.7061 26.423L85.0371 25.6797ZM84.0771 27.8398H83.0771C83.0771 29.0973 83.5788 30.1595 84.5642 30.931L85.1807 30.1436L85.7971 29.3561C85.3111 28.9757 85.0771 28.502 85.0771 27.8398H84.0771ZM85.1807 30.1436L84.6026 30.9596C85.5943 31.662 86.8608 31.9599 88.3008 31.96L88.3008 30.96L88.3008 29.96C87.117 29.9599 86.303 29.7131 85.7587 29.3275L85.1807 30.1436ZM88.3008 30.96V31.96C89.7093 31.96 91.0056 31.6327 92.1633 30.9605L91.6611 30.0957L91.159 29.2309C90.3327 29.7107 89.3883 29.96 88.3008 29.96V30.96ZM91.6611 30.0957L92.1837 30.9483C93.3738 30.2188 94.2313 29.1608 94.7533 27.8185L93.8213 27.4561L92.8893 27.0936C92.5154 28.0551 91.9322 28.7566 91.1385 29.2431L91.6611 30.0957ZM93.8213 27.4561H94.8213V24.8164H93.8213H92.8213V27.4561H93.8213ZM93.8213 24.8164V23.8164H88.6846V24.8164V25.8164H93.8213V24.8164ZM59.7109 15.5518L59.7109 14.5518C58.3025 14.5518 57.0061 14.879 55.8485 15.5512L56.3506 16.416L56.8527 17.2808C57.679 16.801 58.6234 16.5518 59.7109 16.5518L59.7109 15.5518ZM56.3506 16.416L55.8484 15.5513C54.6903 16.2238 53.7801 17.1773 53.1211 18.3854L53.999 18.8643L54.8769 19.3431C55.3698 18.4394 56.0271 17.7602 56.8528 17.2808L56.3506 16.416ZM53.999 18.8643L53.1211 18.3854C52.4475 19.6205 52.1348 21.0739 52.1348 22.7041H53.1348H54.1348C54.1348 21.3265 54.3987 20.22 54.8769 19.3431L53.999 18.8643ZM53.1348 22.7041L52.1348 22.7041C52.1348 24.3075 52.4494 25.7542 53.1152 27.0118L53.999 26.5439L54.8828 26.0761C54.3967 25.1578 54.1348 24.0445 54.1348 22.7041L53.1348 22.7041ZM53.999 26.5439L53.1211 27.0228C53.7801 28.2309 54.6903 29.1844 55.8484 29.857L56.3506 28.9922L56.8528 28.1274C56.0271 27.648 55.3699 26.9688 54.8769 26.0651L53.999 26.5439ZM56.3506 28.9922L55.8485 29.857C57.0061 30.5292 58.3025 30.8564 59.7109 30.8564L59.7109 29.8564L59.7109 28.8564C58.6234 28.8564 57.679 28.6072 56.8527 28.1274L56.3506 28.9922ZM59.7109 29.8564V30.8564C61.1189 30.8564 62.4052 30.5293 63.5379 29.8497L63.0234 28.9922L62.5089 28.1347C61.7216 28.6071 60.799 28.8564 59.7109 28.8564V29.8564ZM63.0234 28.9922L63.5256 29.857C64.6837 29.1844 65.5939 28.2309 66.2529 27.0228L65.375 26.5439L64.4971 26.0651C64.0042 26.9688 63.3469 27.648 62.5213 28.1274L63.0234 28.9922ZM65.375 26.5439L66.2479 27.0318C66.9533 25.7695 67.2861 24.3154 67.2861 22.7041L66.2861 22.7041L65.2861 22.7041C65.2861 24.0367 65.0126 25.1425 64.5021 26.0561L65.375 26.5439ZM66.2861 22.7041H67.2861C67.2861 21.0662 66.9554 19.6051 66.2416 18.3653L65.375 18.8643L64.5084 19.3632C65.0105 20.2353 65.2861 21.3342 65.2861 22.7041H66.2861ZM65.375 18.8643L66.2529 18.3854C65.5939 17.1773 64.6837 16.2238 63.5256 15.5513L63.0234 16.416L62.5212 17.2808C63.3469 17.7602 64.0042 18.4394 64.4971 19.3431L65.375 18.8643ZM63.0234 16.416L63.5379 15.5585C62.4052 14.8789 61.1189 14.5518 59.7109 14.5518V15.5518V16.5518C60.799 16.5518 61.7216 16.8011 62.5089 17.2735L63.0234 16.416Z" fill="#11E4C4" mask="url(#path-1-inside-1_93_36763)"/>
<path d="M141.158 9.40808C143.206 9.40808 145.014 9.82408 146.582 10.6561C148.182 11.4561 149.43 12.7041 150.326 14.4001C151.254 16.0641 151.718 18.2081 151.718 20.8321V35.6161H144.23V21.9841C144.23 19.9041 143.798 18.3681 142.934 17.3761C142.07 16.3841 140.854 15.8881 139.286 15.8881C138.198 15.8881 137.222 16.1441 136.358 16.6561C135.494 17.1361 134.822 17.8721 134.342 18.8641C133.862 19.8561 133.622 21.1201 133.622 22.6561V35.6161H126.134V21.9841C126.134 19.9041 125.702 18.3681 124.838 17.3761C124.006 16.3841 122.806 15.8881 121.238 15.8881C120.15 15.8881 119.174 16.1441 118.31 16.6561C117.446 17.1361 116.774 17.8721 116.294 18.8641C115.814 19.8561 115.574 21.1201 115.574 22.6561V35.6161H108.086V9.79208H115.238V16.8481L113.894 14.7841C114.79 13.0241 116.054 11.6961 117.686 10.8001C119.35 9.87208 121.238 9.40808 123.35 9.40808C125.718 9.40808 127.782 10.0161 129.542 11.2321C131.334 12.4161 132.518 14.2401 133.094 16.7041L130.454 15.9841C131.318 13.9681 132.694 12.3681 134.582 11.1841C136.502 10.0001 138.694 9.40808 141.158 9.40808ZM174.27 35.6161V30.5761L173.79 29.4721V20.4481C173.79 18.8481 173.294 17.6001 172.302 16.7041C171.342 15.8081 169.854 15.3601 167.838 15.3601C166.462 15.3601 165.102 15.5841 163.758 16.0321C162.446 16.4481 161.326 17.0241 160.398 17.7601L157.71 12.5281C159.118 11.5361 160.814 10.7681 162.798 10.2241C164.782 9.68008 166.798 9.40808 168.846 9.40808C172.782 9.40808 175.838 10.3361 178.014 12.1921C180.19 14.0481 181.278 16.9441 181.278 20.8801V35.6161H174.27ZM166.398 36.0001C164.382 36.0001 162.654 35.6641 161.214 34.9921C159.774 34.2881 158.67 33.3441 157.902 32.1601C157.134 30.9761 156.75 29.6481 156.75 28.1761C156.75 26.6401 157.118 25.2961 157.854 24.1441C158.622 22.9921 159.822 22.0961 161.454 21.4561C163.086 20.7841 165.214 20.4481 167.838 20.4481H174.702V24.8161H168.654C166.894 24.8161 165.678 25.1041 165.006 25.6801C164.366 26.2561 164.046 26.9761 164.046 27.8401C164.046 28.8001 164.414 29.5681 165.15 30.1441C165.918 30.6881 166.958 30.9601 168.27 30.9601C169.518 30.9601 170.638 30.6721 171.63 30.0961C172.622 29.4881 173.342 28.6081 173.79 27.4561L174.942 30.9121C174.398 32.5761 173.406 33.8401 171.966 34.7041C170.526 35.5681 168.67 36.0001 166.398 36.0001ZM198.615 36.0001C195.575 36.0001 193.207 35.2321 191.511 33.6961C189.815 32.1281 188.967 29.8081 188.967 26.7361V4.08008H196.455V26.6401C196.455 27.7281 196.743 28.5761 197.319 29.1841C197.895 29.7601 198.679 30.0481 199.671 30.0481C200.855 30.0481 201.863 29.7281 202.695 29.0881L204.711 34.3681C203.943 34.9121 203.015 35.3281 201.927 35.6161C200.871 35.8721 199.767 36.0001 198.615 36.0001ZM184.983 16.1281V10.3681H202.887V16.1281H184.983ZM220.934 36.0001C217.99 36.0001 215.398 35.4241 213.158 34.2721C210.95 33.1201 209.238 31.5521 208.022 29.5681C206.806 27.5521 206.198 25.2641 206.198 22.7041C206.198 20.1121 206.79 17.8241 207.974 15.8401C209.19 13.8241 210.838 12.2561 212.918 11.1361C214.998 9.98408 217.35 9.40808 219.974 9.40808C222.502 9.40808 224.774 9.95208 226.79 11.0401C228.838 12.0961 230.454 13.6321 231.638 15.6481C232.822 17.6321 233.414 20.0161 233.414 22.8001C233.414 23.0881 233.398 23.4241 233.366 23.8081C233.334 24.1601 233.302 24.4961 233.27 24.8161H212.294V20.4481H229.333L226.454 21.7441C226.454 20.4001 226.182 19.2321 225.638 18.2401C225.094 17.2481 224.342 16.4801 223.382 15.9361C222.422 15.3601 221.302 15.0721 220.022 15.0721C218.742 15.0721 217.606 15.3601 216.614 15.9361C215.654 16.4801 214.902 17.2641 214.358 18.2881C213.814 19.2801 213.542 20.4641 213.542 21.8401V22.9921C213.542 24.4001 213.846 25.6481 214.454 26.7361C215.094 27.7921 215.974 28.6081 217.094 29.1841C218.246 29.7281 219.59 30.0001 221.126 30.0001C222.502 30.0001 223.702 29.7921 224.726 29.3761C225.782 28.9601 226.742 28.3361 227.606 27.5041L231.59 31.8241C230.406 33.1681 228.918 34.2081 227.126 34.9441C225.334 35.6481 223.27 36.0001 220.934 36.0001Z" fill="#11E4C4"/>
</svg>
