<svg width="36" height="36" viewBox="0 0 36 36" fill="none" xmlns="http://www.w3.org/2000/svg">
<path d="M21 9C21.3977 9 21.7793 9.14572 22.0605 9.40527C22.3418 9.66494 22.5 10.0175 22.5 10.3848V17.001H18C17.4477 17.001 17 17.4487 17 18.001C17.0004 18.5529 17.448 19.001 18 19.001H22.5V25.6152C22.5 25.9824 22.3418 26.3351 22.0605 26.5947C21.7793 26.8542 21.3977 27 21 27H10.5C10.1023 27 9.72074 26.8542 9.43945 26.5947C9.15815 26.3351 9 25.9824 9 25.6152V10.3848C9 10.0175 9.15815 9.66494 9.43945 9.40527C9.72074 9.14572 10.1023 9 10.5 9H21ZM24.7656 14.5527C25.1168 14.1728 25.6945 14.1266 26.0996 14.4307L26.1787 14.4971L29.1787 17.2656C29.1834 17.27 29.1878 17.2749 29.1924 17.2793C29.2048 17.2912 29.2167 17.3039 29.2285 17.3164C29.2398 17.3285 29.251 17.3409 29.2617 17.3535C29.2708 17.3642 29.2794 17.3756 29.2881 17.3867C29.3003 17.4025 29.313 17.4182 29.3242 17.4346C29.3333 17.4477 29.3412 17.462 29.3496 17.4756C29.3574 17.4882 29.3658 17.5007 29.373 17.5137C29.4535 17.6577 29.5 17.8242 29.5 18.001C29.4999 18.1772 29.4532 18.3426 29.373 18.4863C29.3658 18.4993 29.3574 18.5118 29.3496 18.5244C29.3412 18.538 29.3333 18.5523 29.3242 18.5654C29.313 18.5818 29.3003 18.5975 29.2881 18.6133C29.2794 18.6244 29.2708 18.6358 29.2617 18.6465C29.251 18.6591 29.2398 18.6715 29.2285 18.6836C29.2167 18.6961 29.2048 18.7088 29.1924 18.7207C29.1877 18.7253 29.1836 18.7309 29.1787 18.7354L26.1787 21.5049C25.773 21.8792 25.1402 21.8536 24.7656 21.4482C24.3912 21.0426 24.4159 20.4098 24.8213 20.0352L25.9404 19.001H22.5V17.001H25.9424L24.8213 15.9658L24.75 15.8936C24.4141 15.514 24.4145 14.9333 24.7656 14.5527Z" fill="white"/>
</svg>
