<svg width="361" height="349" viewBox="0 0 361 349" fill="none" xmlns="http://www.w3.org/2000/svg">
<path d="M72.261 235.957C85.7632 219.597 109.256 210.559 129.463 205.618C139.553 203.151 148.796 201.712 155.517 200.889C158.877 200.478 161.606 200.222 163.493 200.068C164.437 199.991 165.17 199.94 165.667 199.908C165.915 199.892 166.105 199.88 166.231 199.873C166.247 199.872 166.263 199.871 166.277 199.871C166.322 199.906 166.381 199.961 166.45 200.05C166.565 200.196 166.689 200.406 166.82 200.686C167.082 201.247 167.343 202.041 167.591 203.057C168.087 205.086 168.513 207.93 168.809 211.407C169.401 218.358 169.465 227.789 168.532 238.189C166.663 259.008 160.807 283.601 147.295 299.974C133.738 316.401 119.558 324.86 106.214 327.025C92.8779 329.188 80.3134 325.076 69.9465 316.232C59.5796 307.387 53.4144 295.519 53.1938 281.79C52.9733 268.053 58.7044 252.384 72.261 235.957Z" fill="#5AF2D8"/>
<path d="M72.261 235.957C85.7632 219.597 109.256 210.559 129.463 205.618C139.553 203.151 148.796 201.712 155.517 200.889C158.877 200.478 161.606 200.222 163.493 200.068C164.437 199.991 165.17 199.94 165.667 199.908C165.915 199.892 166.105 199.88 166.231 199.873C166.247 199.872 166.263 199.871 166.277 199.871C166.322 199.906 166.381 199.961 166.45 200.05C166.565 200.196 166.689 200.406 166.82 200.686C167.082 201.247 167.343 202.041 167.591 203.057C168.087 205.086 168.513 207.93 168.809 211.407C169.401 218.358 169.465 227.789 168.532 238.189C166.663 259.008 160.807 283.601 147.295 299.974C133.738 316.401 119.558 324.86 106.214 327.025C92.8779 329.188 80.3134 325.076 69.9465 316.232C59.5796 307.387 53.4144 295.519 53.1938 281.79C52.9733 268.053 58.7044 252.384 72.261 235.957Z" stroke="black"/>
<path d="M72.261 235.957C85.7632 219.597 109.256 210.559 129.463 205.618C139.553 203.151 148.796 201.712 155.517 200.889C158.877 200.478 161.606 200.222 163.493 200.068C164.437 199.991 165.17 199.94 165.667 199.908C165.915 199.892 166.105 199.88 166.231 199.873C166.247 199.872 166.263 199.871 166.277 199.871C166.322 199.906 166.381 199.961 166.45 200.05C166.565 200.196 166.689 200.406 166.82 200.686C167.082 201.247 167.343 202.041 167.591 203.057C168.087 205.086 168.513 207.93 168.809 211.407C169.401 218.358 169.465 227.789 168.532 238.189C166.663 259.008 160.807 283.601 147.295 299.974C133.738 316.401 119.558 324.86 106.214 327.025C92.8779 329.188 80.3134 325.076 69.9465 316.232C59.5796 307.387 53.4144 295.519 53.1938 281.79C52.9733 268.053 58.7044 252.384 72.261 235.957Z" stroke="black" stroke-opacity="0.2"/>
<path d="M215.335 301.424C201.033 286.042 195.109 261.633 192.779 240.981C191.616 230.669 191.352 221.322 191.378 214.553C191.392 211.169 191.478 208.43 191.56 206.538C191.602 205.593 191.642 204.859 191.672 204.362C191.687 204.114 191.7 203.925 191.709 203.798C191.71 203.782 191.711 203.767 191.712 203.754C191.752 203.713 191.813 203.661 191.907 203.604C192.064 203.508 192.283 203.41 192.573 203.314C193.153 203.123 193.96 202.96 194.982 202.837C197.023 202.591 199.85 202.513 203.281 202.641C210.137 202.897 219.35 203.978 229.385 206.166C249.474 210.546 272.753 219.34 287.065 234.734C301.425 250.179 307.932 265.276 308.399 278.779C308.865 292.274 303.302 304.243 293.391 313.458C283.48 322.672 271.139 327.35 257.713 325.903C244.28 324.456 229.695 316.869 215.335 301.424Z" fill="#5AF2D8"/>
<path d="M215.335 301.424C201.033 286.042 195.109 261.633 192.779 240.981C191.616 230.669 191.352 221.322 191.378 214.553C191.392 211.169 191.478 208.43 191.56 206.538C191.602 205.593 191.642 204.859 191.672 204.362C191.687 204.114 191.7 203.925 191.709 203.798C191.71 203.782 191.711 203.767 191.712 203.754C191.752 203.713 191.813 203.661 191.907 203.604C192.064 203.508 192.283 203.41 192.573 203.314C193.153 203.123 193.96 202.96 194.982 202.837C197.023 202.591 199.85 202.513 203.281 202.641C210.137 202.897 219.35 203.978 229.385 206.166C249.474 210.546 272.753 219.34 287.065 234.734C301.425 250.179 307.932 265.276 308.399 278.779C308.865 292.274 303.302 304.243 293.391 313.458C283.48 322.672 271.139 327.35 257.713 325.903C244.28 324.456 229.695 316.869 215.335 301.424Z" stroke="black"/>
<path d="M215.335 301.424C201.033 286.042 195.109 261.633 192.779 240.981C191.616 230.669 191.352 221.322 191.378 214.553C191.392 211.169 191.478 208.43 191.56 206.538C191.602 205.593 191.642 204.859 191.672 204.362C191.687 204.114 191.7 203.925 191.709 203.798C191.71 203.782 191.711 203.767 191.712 203.754C191.752 203.713 191.813 203.661 191.907 203.604C192.064 203.508 192.283 203.41 192.573 203.314C193.153 203.123 193.96 202.96 194.982 202.837C197.023 202.591 199.85 202.513 203.281 202.641C210.137 202.897 219.35 203.978 229.385 206.166C249.474 210.546 272.753 219.34 287.065 234.734C301.425 250.179 307.932 265.276 308.399 278.779C308.865 292.274 303.302 304.243 293.391 313.458C283.48 322.672 271.139 327.35 257.713 325.903C244.28 324.456 229.695 316.869 215.335 301.424Z" stroke="black" stroke-opacity="0.2"/>
<path d="M227.458 66.4992C228.462 81.3034 224.124 96.8985 217.84 111.165C211.558 125.425 203.348 138.32 196.653 147.712C190.488 156.36 178.506 157.173 171.23 149.437C163.328 141.035 153.452 129.367 145.302 116.086C137.148 102.799 130.743 87.933 129.739 73.1289C128.216 50.6753 132.603 33.8093 140.704 22.3405C148.799 10.8817 160.633 4.76276 174.123 3.84754C187.613 2.93234 200.165 7.39677 209.733 17.6573C219.309 27.9268 225.934 44.0456 227.458 66.4992Z" fill="white"/>
<path d="M227.458 66.4992C228.462 81.3034 224.124 96.8985 217.84 111.165C211.558 125.425 203.348 138.32 196.653 147.712C190.488 156.36 178.506 157.173 171.23 149.437C163.328 141.035 153.452 129.367 145.302 116.086C137.148 102.799 130.743 87.933 129.739 73.1289C128.216 50.6753 132.603 33.8093 140.704 22.3405C148.799 10.8817 160.633 4.76276 174.123 3.84754C187.613 2.93234 200.165 7.39677 209.733 17.6573C219.309 27.9268 225.934 44.0456 227.458 66.4992Z" stroke="#4DF7DB"/>
<path d="M227.458 66.4992C228.462 81.3034 224.124 96.8985 217.84 111.165C211.558 125.425 203.348 138.32 196.653 147.712C190.488 156.36 178.506 157.173 171.23 149.437C163.328 141.035 153.452 129.367 145.302 116.086C137.148 102.799 130.743 87.933 129.739 73.1289C128.216 50.6753 132.603 33.8093 140.704 22.3405C148.799 10.8817 160.633 4.76276 174.123 3.84754C187.613 2.93234 200.165 7.39677 209.733 17.6573C219.309 27.9268 225.934 44.0456 227.458 66.4992Z" stroke="black" stroke-opacity="0.2"/>
<path d="M300.782 182.773C275.227 193.621 241.109 190.602 219.772 186.991C209.032 185.174 203.068 174.342 207.214 164.266C211.971 152.706 219.085 137.631 228.378 124.02C237.676 110.4 249.118 98.3012 262.51 92.6165C282.524 84.12 299.38 82.9576 312.528 86.9968C325.666 91.033 335.163 100.281 340.448 112.732C345.734 125.184 345.79 138.439 339.568 150.694C333.341 162.958 320.797 174.276 300.782 182.773Z" fill="white"/>
<path d="M300.782 182.773C275.227 193.621 241.109 190.602 219.772 186.991C209.032 185.174 203.068 174.342 207.214 164.266C211.971 152.706 219.085 137.631 228.378 124.02C237.676 110.4 249.118 98.3012 262.51 92.6165C282.524 84.12 299.38 82.9576 312.528 86.9968C325.666 91.033 335.163 100.281 340.448 112.732C345.734 125.184 345.79 138.439 339.568 150.694C333.341 162.958 320.797 174.276 300.782 182.773Z" stroke="#4DF7DB"/>
<path d="M300.782 182.773C275.227 193.621 241.109 190.602 219.772 186.991C209.032 185.174 203.068 174.342 207.214 164.266C211.971 152.706 219.085 137.631 228.378 124.02C237.676 110.4 249.118 98.3012 262.51 92.6165C282.524 84.12 299.38 82.9576 312.528 86.9968C325.666 91.033 335.163 100.281 340.448 112.732C345.734 125.184 345.79 138.439 339.568 150.694C333.341 162.958 320.797 174.276 300.782 182.773Z" stroke="black" stroke-opacity="0.2"/>
<path d="M102.283 94.6986C115.681 101.044 127.16 112.438 136.531 124.884C145.898 137.324 153.132 150.78 158.052 161.204C162.581 170.801 157.445 181.646 147.15 184.224C135.969 187.023 120.974 189.952 105.415 190.588C89.8493 191.224 73.7607 189.563 60.3624 183.218C40.0433 173.595 27.4809 161.539 21.4369 148.875C15.3981 136.221 15.8403 122.908 21.6274 110.688C27.4145 98.468 37.4339 89.6904 51.0494 86.3447C64.677 82.996 81.9636 85.0761 102.283 94.6986Z" fill="white"/>
<path d="M102.283 94.6986C115.681 101.044 127.16 112.438 136.531 124.884C145.898 137.324 153.132 150.78 158.052 161.204C162.581 170.801 157.445 181.646 147.15 184.224C135.969 187.023 120.974 189.952 105.415 190.588C89.8493 191.224 73.7607 189.563 60.3624 183.218C40.0433 173.595 27.4809 161.539 21.4369 148.875C15.3981 136.221 15.8403 122.908 21.6274 110.688C27.4145 98.468 37.4339 89.6904 51.0494 86.3447C64.677 82.996 81.9636 85.0761 102.283 94.6986Z" stroke="#4DF7DB"/>
<path d="M102.283 94.6986C115.681 101.044 127.16 112.438 136.531 124.884C145.898 137.324 153.132 150.78 158.052 161.204C162.581 170.801 157.445 181.646 147.15 184.224C135.969 187.023 120.974 189.952 105.415 190.588C89.8493 191.224 73.7607 189.563 60.3624 183.218C40.0433 173.595 27.4809 161.539 21.4369 148.875C15.3981 136.221 15.8403 122.908 21.6274 110.688C27.4145 98.468 37.4339 89.6904 51.0494 86.3447C64.677 82.996 81.9636 85.0761 102.283 94.6986Z" stroke="black" stroke-opacity="0.2"/>
</svg>
