<svg width="36" height="36" viewBox="0 0 36 36" fill="none" xmlns="http://www.w3.org/2000/svg">
<path d="M21 9C21.3977 9 21.7793 9.14572 22.0605 9.40527C22.3418 9.66494 22.5 10.0175 22.5 10.3848V17.001H18C17.4477 17.001 17 17.4487 17 18.001C17.0004 18.5529 17.448 19.001 18 19.001H22.5V25.6152C22.5 25.9824 22.3418 26.3351 22.0605 26.5947C21.7793 26.8542 21.3977 27 21 27H10.5C10.1023 27 9.72074 26.8542 9.43945 26.5947C9.15815 26.3351 9 25.9824 9 25.6152V10.3848C9 10.0175 9.15815 9.66494 9.43945 9.40527C9.72074 9.14572 10.1023 9 10.5 9H21ZM24.7656 14.5527C25.1168 14.1728 25.6945 14.1266 26.0996 14.4307L26.1787 14.4971L29.1787 17.2656C29.1834 17.27 29.1878 17.2749 29.1924 17.2793C29.2048 17.2912 29.2167 17.3039 29.2285 17.3164C29.2398 17.3285 29.251 17.3409 29.2617 17.3535C29.2708 17.3642 29.2794 17.3756 29.2881 17.3867C29.3003 17.4025 29.313 17.4182 29.3242 17.4346C29.3333 17.4477 29.3412 17.462 29.3496 17.4756C29.3574 17.4882 29.3658 17.5007 29.373 17.5137C29.4535 17.6577 29.5 17.8242 29.5 18.001C29.4999 18.1772 29.4532 18.3426 29.373 18.4863C29.3658 18.4993 29.3574 18.5118 29.3496 18.5244C29.3412 18.538 29.3333 18.5523 29.3242 18.5654C29.313 18.5818 29.3003 18.5975 29.2881 18.6133C29.2794 18.6244 29.2708 18.6358 29.2617 18.6465C29.251 18.6591 29.2398 18.6715 29.2285 18.6836C29.2167 18.6961 29.2048 18.7088 29.1924 18.7207C29.1877 18.7253 29.1836 18.7309 29.1787 18.7354L26.1787 21.5049C25.773 21.8792 25.1402 21.8536 24.7656 21.4482C24.3912 21.0426 24.4159 20.4098 24.8213 20.0352L25.9404 19.001H22.5V17.001H25.9424L24.8213 15.9658L24.75 15.8936C24.4141 15.514 24.4145 14.9333 24.7656 14.5527Z" fill="white"/>
<path d="M22.0605 9.40527L22.3997 9.03788L22.3996 9.03781L22.0605 9.40527ZM17 18.001L16.5 18.001L16.5 18.0014L17 18.001ZM22.0605 26.5947L22.3996 26.9622L22.3997 26.9622L22.0605 26.5947ZM9.43945 26.5947L9.10035 26.9622L9.10042 26.9622L9.43945 26.5947ZM9.43945 9.40527L9.10038 9.03781L9.10031 9.03787L9.43945 9.40527ZM24.7656 14.5527L24.3984 14.2134L24.3981 14.2137L24.7656 14.5527ZM26.0996 14.4307L26.4211 14.0477C26.4141 14.0419 26.407 14.0362 26.3998 14.0308L26.0996 14.4307ZM26.1787 14.4971L26.5178 14.1296C26.5121 14.1243 26.5062 14.1192 26.5002 14.1141L26.1787 14.4971ZM29.1787 17.2656L29.5188 16.8991L29.5178 16.8982L29.1787 17.2656ZM29.1924 17.2793L29.5389 16.9188L29.5386 16.9186L29.1924 17.2793ZM29.2285 17.3164L29.5932 16.9743L29.5929 16.9741L29.2285 17.3164ZM29.2617 17.3535L28.8805 17.677L28.8806 17.6771L29.2617 17.3535ZM29.2881 17.3867L29.6827 17.0797L29.6823 17.0792L29.2881 17.3867ZM29.3242 17.4346L28.9118 17.7173L28.912 17.7175L29.3242 17.4346ZM29.3496 17.4756L29.7751 17.2129L29.7747 17.2124L29.3496 17.4756ZM29.373 17.5137L28.9361 17.7568L28.9365 17.7574L29.373 17.5137ZM29.5 18.001L30 18.0014V18.001H29.5ZM29.373 18.4863L28.9364 18.2428L28.9363 18.2429L29.373 18.4863ZM29.3496 18.5244L29.7751 18.787L29.7753 18.7866L29.3496 18.5244ZM29.3242 18.5654L28.9121 18.2824L28.9119 18.2826L29.3242 18.5654ZM29.2881 18.6133L29.6826 18.9204L29.6829 18.92L29.2881 18.6133ZM29.2617 18.6465L28.8806 18.3229L28.8804 18.3231L29.2617 18.6465ZM29.2285 18.6836L29.5932 19.0257L29.5933 19.0255L29.2285 18.6836ZM29.1924 18.7207L28.8458 18.3603L28.8443 18.3618L29.1924 18.7207ZM29.1787 18.7354L29.5179 19.1027L29.518 19.1026L29.1787 18.7354ZM26.1787 21.5049L26.5178 21.8724L26.5179 21.8723L26.1787 21.5049ZM24.7656 21.4482L24.3982 21.7874L24.3984 21.7876L24.7656 21.4482ZM24.8213 20.0352L24.4819 19.6679L24.4819 19.6679L24.8213 20.0352ZM25.9404 19.001L26.2798 19.3682C26.4309 19.2285 26.4811 19.0105 26.4061 18.8188C26.3311 18.6271 26.1463 18.501 25.9404 18.501V19.001ZM25.9424 17.001V17.501C26.1482 17.501 26.3331 17.3748 26.408 17.1831C26.483 16.9914 26.4328 16.7733 26.2816 16.6336L25.9424 17.001ZM24.8213 15.9658L24.4653 16.317C24.4708 16.3225 24.4764 16.3279 24.4821 16.3332L24.8213 15.9658ZM24.75 15.8936L24.3756 16.2249C24.3815 16.2317 24.3877 16.2383 24.394 16.2447L24.75 15.8936ZM21 9V9.5C21.2776 9.5 21.5365 9.60208 21.7215 9.77274L22.0605 9.40527L22.3996 9.03781C22.022 8.68937 21.5179 8.5 21 8.5V9ZM22.0605 9.40527L21.7214 9.77267C21.905 9.94219 22 10.1636 22 10.3848H22.5H23C23 9.87149 22.7786 9.38769 22.3997 9.03788L22.0605 9.40527ZM22.5 10.3848H22V17.001H22.5H23V10.3848H22.5ZM22.5 17.001V16.501H18V17.001V17.501H22.5V17.001ZM18 17.001V16.501C17.1716 16.501 16.5 17.1725 16.5 18.001H17H17.5C17.5 17.7248 17.7239 17.501 18 17.501V17.001ZM17 18.001L16.5 18.0014C16.5007 18.8287 17.1714 19.501 18 19.501V19.001V18.501C17.7245 18.501 17.5002 18.2771 17.5 18.0006L17 18.001ZM18 19.001V19.501H22.5V19.001V18.501H18V19.001ZM22.5 19.001H22V25.6152H22.5H23V19.001H22.5ZM22.5 25.6152H22C22 25.8364 21.905 26.0579 21.7214 26.2273L22.0605 26.5947L22.3997 26.9622C22.7787 26.6124 23 26.1285 23 25.6152H22.5ZM22.0605 26.5947L21.7215 26.2272C21.5365 26.3979 21.2776 26.5 21 26.5V27V27.5C21.5179 27.5 22.022 27.3106 22.3996 26.9622L22.0605 26.5947ZM21 27V26.5H10.5V27V27.5H21V27ZM10.5 27V26.5C10.2224 26.5 9.96348 26.3979 9.77849 26.2272L9.43945 26.5947L9.10042 26.9622C9.478 27.3106 9.98209 27.5 10.5 27.5V27ZM9.43945 26.5947L9.77856 26.2273C9.59498 26.0579 9.5 25.8364 9.5 25.6152H9H8.5C8.5 26.1284 8.72132 26.6124 9.10035 26.9622L9.43945 26.5947ZM9 25.6152H9.5V10.3848H9H8.5V25.6152H9ZM9 10.3848H9.5C9.5 10.1636 9.59496 9.94219 9.77859 9.77267L9.43945 9.40527L9.10031 9.03787C8.72134 9.38769 8.5 9.87149 8.5 10.3848H9ZM9.43945 9.40527L9.77852 9.77274C9.96347 9.60208 10.2224 9.5 10.5 9.5V9V8.5C9.98213 8.5 9.47801 8.68936 9.10038 9.03781L9.43945 9.40527ZM10.5 9V9.5H21V9V8.5H10.5V9ZM24.7656 14.5527L25.1328 14.8921C25.3083 14.7022 25.5975 14.679 25.7994 14.8305L26.0996 14.4307L26.3998 14.0308C25.7915 13.5742 24.9252 13.6434 24.3984 14.2134L24.7656 14.5527ZM26.0996 14.4307L25.7781 14.8136L25.8572 14.88L26.1787 14.4971L26.5002 14.1141L26.4211 14.0477L26.0996 14.4307ZM26.1787 14.4971L25.8396 14.8645L28.8396 17.6331L29.1787 17.2656L29.5178 16.8982L26.5178 14.1296L26.1787 14.4971ZM29.1787 17.2656L28.8387 17.6322C28.834 17.6279 28.8306 17.6245 28.8288 17.6228C28.8272 17.6211 28.8262 17.62 28.827 17.6209C28.8272 17.6211 28.8301 17.624 28.8327 17.6267C28.8357 17.6297 28.8404 17.6345 28.8461 17.64L29.1924 17.2793L29.5386 16.9186C29.5421 16.9219 29.5445 16.9244 29.5453 16.9251C29.5456 16.9255 29.5463 16.9261 29.5441 16.9239C29.5427 16.9225 29.5394 16.9191 29.5355 16.9152C29.5315 16.9111 29.5257 16.9055 29.5188 16.8991L29.1787 17.2656ZM29.1924 17.2793L28.8459 17.6398C28.8479 17.6417 28.8518 17.6456 28.8641 17.6587L29.2285 17.3164L29.5929 16.9741C29.5817 16.9621 29.5617 16.9407 29.5389 16.9188L29.1924 17.2793ZM29.2285 17.3164L28.8639 17.6585C28.8704 17.6655 28.876 17.6717 28.8805 17.677L29.2617 17.3535L29.643 17.03C29.6261 17.0101 29.6093 16.9915 29.5932 16.9743L29.2285 17.3164ZM29.2617 17.3535L28.8806 17.6771C28.8792 17.6755 28.8792 17.6754 28.8817 17.6786C28.8829 17.6801 28.8843 17.6819 28.8864 17.6847C28.8883 17.687 28.8911 17.6907 28.8938 17.6942L29.2881 17.3867L29.6823 17.0792C29.68 17.0762 29.6609 17.0511 29.6429 17.0299L29.2617 17.3535ZM29.2881 17.3867L28.8935 17.6938C28.897 17.6983 28.9011 17.7035 28.9035 17.7065C28.9063 17.7102 28.9082 17.7127 28.9099 17.7148C28.9132 17.7192 28.9132 17.7194 28.9118 17.7173L29.3242 17.4346L29.7366 17.1519C29.7143 17.1193 29.6878 17.0862 29.6827 17.0797L29.2881 17.3867ZM29.3242 17.4346L28.912 17.7175C28.9098 17.7143 28.9084 17.7122 28.908 17.7115C28.9076 17.7109 28.9078 17.7112 28.909 17.7131C28.9095 17.714 28.9102 17.7152 28.9111 17.7167C28.9119 17.718 28.9133 17.7203 28.9144 17.7222C28.9169 17.7263 28.9204 17.7322 28.9245 17.7388L29.3496 17.4756L29.7747 17.2124C29.7723 17.2085 29.7738 17.2107 29.7653 17.1967C29.7597 17.1873 29.7494 17.1705 29.7365 17.1516L29.3242 17.4346ZM29.3496 17.4756L28.9241 17.7382C28.9278 17.7441 28.9311 17.7494 28.9334 17.753C28.9362 17.7574 28.9371 17.7588 28.9385 17.761C28.9409 17.7649 28.9392 17.7622 28.9361 17.7568L29.373 17.5137L29.81 17.2706C29.7997 17.2522 29.7901 17.2368 29.7846 17.228C29.7762 17.2146 29.7778 17.2174 29.7751 17.2129L29.3496 17.4756ZM29.373 17.5137L28.9365 17.7574C28.9769 17.8299 29 17.9128 29 18.001H29.5H30C30 17.7357 29.9301 17.4856 29.8096 17.2699L29.373 17.5137ZM29.5 18.001L29 18.0006C28.9999 18.0876 28.9771 18.1698 28.9364 18.2428L29.373 18.4863L29.8097 18.7299C29.9293 18.5154 29.9998 18.2668 30 18.0014L29.5 18.001ZM29.373 18.4863L28.9363 18.2429C28.9393 18.2375 28.9411 18.2349 28.9385 18.2389C28.938 18.2398 28.9373 18.2408 28.9364 18.2422C28.9357 18.2434 28.9343 18.2455 28.9333 18.2472C28.9309 18.2509 28.9276 18.2562 28.9239 18.2622L29.3496 18.5244L29.7753 18.7866C29.7777 18.7828 29.7764 18.7849 29.7846 18.772C29.79 18.7634 29.7996 18.7481 29.8098 18.7297L29.373 18.4863ZM29.3496 18.5244L28.9241 18.2618C28.9202 18.2682 28.9167 18.274 28.9143 18.2779C28.9114 18.2828 28.9105 18.2843 28.909 18.2868C28.9065 18.291 28.9082 18.288 28.9121 18.2824L29.3242 18.5654L29.7364 18.8485C29.7493 18.8297 29.7595 18.8129 29.7653 18.8034C29.774 18.7889 29.7722 18.7917 29.7751 18.787L29.3496 18.5244ZM29.3242 18.5654L28.9119 18.2826C28.9133 18.2805 28.9133 18.2807 28.9099 18.2852C28.9082 18.2873 28.9063 18.2898 28.9034 18.2935C28.9009 18.2967 28.8969 18.3018 28.8932 18.3065L29.2881 18.6133L29.6829 18.92C29.6876 18.9141 29.7143 18.8806 29.7366 18.8482L29.3242 18.5654ZM29.2881 18.6133L28.8935 18.3061C28.8909 18.3095 28.8881 18.3131 28.8863 18.3154C28.8843 18.318 28.8829 18.3198 28.8817 18.3213C28.8793 18.3244 28.8793 18.3244 28.8806 18.3229L29.2617 18.6465L29.6429 18.9701C29.661 18.9488 29.6796 18.9243 29.6826 18.9204L29.2881 18.6133ZM29.2617 18.6465L28.8804 18.3231C28.8761 18.3282 28.8706 18.3343 28.8637 18.3417L29.2285 18.6836L29.5933 19.0255C29.6091 19.0087 29.626 18.99 29.643 18.9699L29.2617 18.6465ZM29.2285 18.6836L28.8639 18.3415C28.8521 18.3541 28.848 18.3582 28.8458 18.3603L29.1924 18.7207L29.539 19.0811C29.5616 19.0593 29.5814 19.0382 29.5932 19.0257L29.2285 18.6836ZM29.1924 18.7207L28.8443 18.3618C28.8329 18.3728 28.8241 18.3824 28.8188 18.3881C28.8161 18.3911 28.8138 18.3937 28.8124 18.3952C28.8117 18.3961 28.8111 18.3968 28.8107 18.3972C28.8105 18.3974 28.8103 18.3977 28.8102 18.3978C28.81 18.398 28.81 18.3981 28.8099 18.3981C28.8089 18.3992 28.812 18.3958 28.8162 18.3912C28.8206 18.3864 28.8286 18.378 28.8394 18.3681L29.1787 18.7354L29.518 19.1026C29.5312 19.0904 29.5416 19.0796 29.5483 19.0724C29.5548 19.0654 29.56 19.0594 29.5613 19.058C29.5625 19.0566 29.5621 19.0571 29.5621 19.0571C29.5618 19.0574 29.5607 19.0587 29.5591 19.0604C29.5561 19.0638 29.5495 19.0709 29.5405 19.0796L29.1924 18.7207ZM29.1787 18.7354L28.8396 18.368L25.8396 21.1375L26.1787 21.5049L26.5179 21.8723L29.5179 19.1027L29.1787 18.7354ZM26.1787 21.5049L25.8397 21.1374C25.6371 21.3243 25.3204 21.3118 25.1328 21.1089L24.7656 21.4482L24.3984 21.7876C24.9601 22.3954 25.909 22.4341 26.5178 21.8724L26.1787 21.5049ZM24.7656 21.4482L25.133 21.1091C24.9455 20.906 24.9582 20.5894 25.1606 20.4024L24.8213 20.0352L24.4819 19.6679C23.8735 20.2302 23.8368 21.1792 24.3982 21.7874L24.7656 21.4482ZM24.8213 20.0352L25.1606 20.4024L26.2798 19.3682L25.9404 19.001L25.6011 18.6338L24.4819 19.6679L24.8213 20.0352ZM25.9404 19.001V18.501H22.5V19.001V19.501H25.9404V19.001ZM22.5 19.001H23V17.001H22.5H22V19.001H22.5ZM22.5 17.001V17.501H25.9424V17.001V16.501H22.5V17.001ZM25.9424 17.001L26.2816 16.6336L25.1605 15.5985L24.8213 15.9658L24.4821 16.3332L25.6032 17.3683L25.9424 17.001ZM24.8213 15.9658L25.1772 15.6147L25.106 15.5424L24.75 15.8936L24.394 16.2447L24.4653 16.317L24.8213 15.9658ZM24.75 15.8936L25.1244 15.5622C24.9574 15.3734 24.9572 15.0824 25.1331 14.8918L24.7656 14.5527L24.3981 14.2137C23.8719 14.7841 23.8708 15.6545 24.3756 16.2249L24.75 15.8936Z" fill="#10B981"/>
</svg>
