<svg width="19" height="18" viewBox="0 0 19 18" fill="none" xmlns="http://www.w3.org/2000/svg">
<g clip-path="url(#clip0_718_7331)">
<path fill-rule="evenodd" clip-rule="evenodd" d="M18.5004 9.20483C18.5011 8.58732 18.4453 7.97099 18.3334 7.36328H9.68164V10.8446H14.6244C14.5218 11.3947 14.3065 11.9187 13.9916 12.385C13.6767 12.8513 13.2686 13.2502 12.7919 13.5577V15.8164H15.7595C17.4959 14.2496 18.4978 11.9417 18.4978 9.20313L18.5004 9.20483Z" fill="#3E82F1"/>
<path fill-rule="evenodd" clip-rule="evenodd" d="M9.68363 17.9989C12.1632 17.9989 14.2422 17.1934 15.7615 15.819L12.7939 13.5603C11.9712 14.1004 10.9191 14.4201 9.68363 14.4201C7.29142 14.4201 5.2669 12.8363 4.54535 10.709H1.47656V13.0414C2.24102 14.5322 3.41339 15.7853 4.86269 16.6607C6.31199 17.5362 7.98114 17.9995 9.68363 17.9989Z" fill="#32A753"/>
<path fill-rule="evenodd" clip-rule="evenodd" d="M4.54551 10.7089C4.16137 9.60017 4.16137 8.3982 4.54551 7.28949V4.95703H1.47673C0.834454 6.21152 0.5 7.59565 0.5 8.99919C0.5 10.4027 0.834454 11.7869 1.47673 13.0413L4.54551 10.7089Z" fill="#F9BB00"/>
<path fill-rule="evenodd" clip-rule="evenodd" d="M9.68385 3.5788C11.0327 3.5788 12.243 4.03325 13.1947 4.9252L15.8283 2.34348C14.2381 0.891099 12.1591 6.22621e-07 9.68558 6.22621e-07C7.98308 -0.000619949 6.31394 0.462668 4.86464 1.33811C3.41534 2.21355 2.24297 3.46665 1.47852 4.95742L4.5473 7.28987C5.26886 5.1626 7.29337 3.5788 9.68558 3.5788H9.68385Z" fill="#E74133"/>
</g>
<defs>
<clipPath id="clip0_718_7331">
<rect width="18" height="18" fill="white" transform="translate(0.5)"/>
</clipPath>
</defs>
</svg>
