<svg width="21" height="18" viewBox="0 0 21 18" fill="none" xmlns="http://www.w3.org/2000/svg">
<g clip-path="url(#clip0_718_7338)">
<path d="M7.80859 8.393H8.96052L8.38456 6.79688L7.80859 8.393Z" fill="#331D1E"/>
<path d="M10.5 0C4.97692 0 0.5 3.44264 0.5 7.6899C0.5 10.4358 2.37212 12.8478 5.1875 14.2057C5.03462 14.7205 4.20288 17.5198 4.17019 17.7402C4.17019 17.7402 4.15 17.9053 4.25962 17.9681C4.29629 17.9862 4.33636 17.9967 4.37736 17.9991C4.41836 18.0015 4.45944 17.9958 4.49808 17.9822C4.81346 17.939 8.15192 15.6555 8.72885 15.2626C9.31569 15.3421 9.90753 15.3812 10.5 15.3798C16.0231 15.3798 20.5 11.9372 20.5 7.6899C20.5 3.44264 16.0231 0 10.5 0ZM5.55096 6.49609C5.53846 7.58393 5.56058 8.72804 5.54231 9.799C5.53654 10.1413 5.33462 10.2435 5.06154 10.341C5.03069 10.3517 4.99745 10.3539 4.96538 10.3476C4.65288 10.2876 4.40385 10.1788 4.39615 9.79994C4.37404 8.72992 4.40288 7.58393 4.3875 6.49609C4.12308 6.48578 3.74615 6.50641 3.50096 6.49609C3.16058 6.47452 2.92404 6.26352 2.93846 5.94936C2.95288 5.6352 3.125 5.40919 3.50673 5.40356C4.40865 5.39043 5.52596 5.39043 6.42789 5.40356C6.8125 5.40919 6.98365 5.63614 6.99519 5.94936C7.00673 6.26258 6.77404 6.47452 6.43462 6.49609C6.19231 6.50641 5.81635 6.48578 5.55096 6.49609ZM10.3971 10.2895C10.2818 10.3407 10.1565 10.3672 10.0298 10.3673C9.78942 10.3673 9.60577 10.2735 9.54904 10.1188L9.26058 9.38918H7.50481L7.21635 10.1188C7.16058 10.2716 6.97692 10.3673 6.73558 10.3673C6.60915 10.3673 6.4842 10.3408 6.36923 10.2895C6.20962 10.2182 6.05673 10.0213 6.23173 9.49047L7.61538 5.94748C7.67341 5.79142 7.77734 5.65551 7.91416 5.55676C8.05098 5.45801 8.21463 5.40081 8.38462 5.39231C8.55447 5.40172 8.7178 5.45939 8.85448 5.5582C8.99116 5.65701 9.09522 5.79265 9.15385 5.94842L10.5327 9.48953C10.7087 10.0213 10.5558 10.2219 10.3971 10.2895ZM13.3125 10.2895H11.4615C11.3182 10.2922 11.1796 10.2395 11.0759 10.1429C10.9723 10.0462 10.9122 9.91347 10.9087 9.77368V5.95499C10.9148 5.80666 10.9795 5.66641 11.0893 5.56358C11.1991 5.46076 11.3454 5.40333 11.4976 5.40333C11.6498 5.40333 11.7961 5.46076 11.9059 5.56358C12.0157 5.66641 12.0804 5.80666 12.0865 5.95499V9.26071H13.3125C13.3846 9.25646 13.4569 9.26665 13.5248 9.29066C13.5928 9.31466 13.655 9.35196 13.7076 9.40027C13.7602 9.44858 13.8021 9.50688 13.8308 9.57158C13.8594 9.63628 13.8742 9.70601 13.8742 9.77649C13.8742 9.84697 13.8594 9.9167 13.8308 9.9814C13.8021 10.0461 13.7602 10.1044 13.7076 10.1527C13.655 10.201 13.5928 10.2383 13.5248 10.2623C13.4569 10.2863 13.3846 10.2965 13.3125 10.2923V10.2895ZM17.8317 9.86558C17.8167 9.97658 17.7681 10.0807 17.6921 10.1646C17.6161 10.2485 17.5161 10.3084 17.4051 10.3365C17.294 10.3647 17.1768 10.36 17.0685 10.3229C16.9602 10.2857 16.8657 10.2179 16.7971 10.1282L15.4442 8.38106L15.2442 8.57612V9.80369C15.2442 9.95292 15.1834 10.096 15.0753 10.2016C14.9671 10.3071 14.8203 10.3664 14.6673 10.3664C14.5143 10.3664 14.3676 10.3071 14.2594 10.2016C14.1512 10.096 14.0904 9.95292 14.0904 9.80369V5.95874C14.0904 5.80951 14.1512 5.66639 14.2594 5.56086C14.3676 5.45534 14.5143 5.39606 14.6673 5.39606C14.8203 5.39606 14.9671 5.45534 15.0753 5.56086C15.1834 5.66639 15.2442 5.80951 15.2442 5.95874V7.16474L16.8538 5.59487C16.896 5.55424 16.946 5.5222 17.001 5.50062C17.056 5.47904 17.1148 5.46837 17.174 5.46921C17.3181 5.4729 17.4557 5.52836 17.5604 5.62494C17.6651 5.72152 17.7295 5.85241 17.7413 5.9925C17.7465 6.05501 17.738 6.11788 17.7162 6.17691C17.6945 6.23593 17.6601 6.28976 17.6154 6.33479L16.2981 7.61676L17.7183 9.45202C17.8102 9.57105 17.85 9.7208 17.8288 9.8684L17.8317 9.86558Z" fill="#331D1E"/>
</g>
<defs>
<clipPath id="clip0_718_7338">
<rect width="20" height="18" fill="white" transform="translate(0.5)"/>
</clipPath>
</defs>
</svg>
