<svg width="204" height="30" viewBox="0 0 204 30" fill="none" xmlns="http://www.w3.org/2000/svg">
<path d="M9.84 29.3196C8 29.3196 6.3333 28.8796 4.84 27.9996C3.3467 27.0929 2.16 25.8529 1.28 24.2796C0.426699 22.7063 0 20.9063 0 18.8796C0 16.8529 0.426699 15.0796 1.28 13.5596C2.16 12.0396 3.3467 10.8529 4.84 9.99961C6.3333 9.11961 8 8.67961 9.84 8.67961C11.1467 8.67961 12.4133 9.03961 13.64 9.75961C14.8667 10.4796 15.8133 11.6663 16.48 13.3196V8.95961H24.8V28.9996H16.4V25.2796C15.76 26.5863 14.9067 27.5863 13.84 28.2796C12.7733 28.9729 11.44 29.3196 9.84 29.3196ZM12.44 22.9996C13.5333 22.9996 14.4667 22.6129 15.24 21.8396C16.0133 21.0396 16.4 20.0663 16.4 18.9196C16.4 17.7729 16.0133 16.8396 15.24 16.1196C14.4667 15.3729 13.5333 14.9996 12.44 14.9996C11.2933 14.9996 10.3333 15.3863 9.56 16.1596C8.7867 16.9329 8.4 17.8796 8.4 18.9996C8.4 20.1196 8.7867 21.0663 9.56 21.8396C10.3333 22.6129 11.2933 22.9996 12.44 22.9996ZM36.6925 29.3196C34.7992 29.3196 33.2525 28.9996 32.0525 28.3596C30.8792 27.7196 30.0258 26.8529 29.4925 25.7596C28.9592 24.6663 28.6925 23.4396 28.6925 22.0796V1.83961L37.1325 0.599609V20.9196C37.1325 21.5329 37.3325 22.0129 37.7325 22.3596C38.1325 22.6796 38.6525 22.8396 39.2925 22.8396C39.9325 22.8396 40.5725 22.6796 41.2125 22.3596L41.8125 27.9196C41.1725 28.3729 40.3592 28.7196 39.3725 28.9596C38.3858 29.1996 37.4925 29.3196 36.6925 29.3196ZM58.773 29.3196C57.173 29.3196 55.839 28.9729 54.773 28.2796C53.706 27.5863 52.853 26.5863 52.213 25.2796V28.9996H43.8125V2.63961L52.293 1.39961V13.0796C52.933 11.5596 53.839 10.4529 55.013 9.75961C56.213 9.03961 57.466 8.67961 58.773 8.67961C60.639 8.67961 62.306 9.11961 63.773 9.99961C65.266 10.8529 66.439 12.0396 67.293 13.5596C68.173 15.0796 68.613 16.8529 68.613 18.8796C68.613 20.9063 68.173 22.7063 67.293 24.2796C66.439 25.8529 65.266 27.0929 63.773 27.9996C62.306 28.8796 60.639 29.3196 58.773 29.3196ZM56.173 22.9996C57.319 22.9996 58.279 22.6129 59.053 21.8396C59.826 21.0663 60.213 20.1196 60.213 18.9996C60.213 17.8796 59.826 16.9329 59.053 16.1596C58.279 15.3863 57.319 14.9996 56.173 14.9996C55.079 14.9996 54.146 15.3729 53.373 16.1196C52.599 16.8396 52.213 17.7729 52.213 18.9196C52.213 20.0663 52.599 21.0396 53.373 21.8396C54.146 22.6129 55.079 22.9996 56.173 22.9996ZM80.465 29.3196C78.625 29.3196 76.958 28.8796 75.465 27.9996C73.972 27.0929 72.785 25.8529 71.905 24.2796C71.052 22.7063 70.625 20.9063 70.625 18.8796C70.625 16.8529 71.052 15.0796 71.905 13.5596C72.785 12.0396 73.972 10.8529 75.465 9.99961C76.958 9.11961 78.625 8.67961 80.465 8.67961C81.772 8.67961 83.038 9.03961 84.265 9.75961C85.492 10.4796 86.438 11.6663 87.105 13.3196V8.95961H95.425V28.9996H87.025V25.2796C86.385 26.5863 85.532 27.5863 84.465 28.2796C83.398 28.9729 82.065 29.3196 80.465 29.3196ZM83.065 22.9996C84.158 22.9996 85.092 22.6129 85.865 21.8396C86.638 21.0396 87.025 20.0663 87.025 18.9196C87.025 17.7729 86.638 16.8396 85.865 16.1196C85.092 15.3729 84.158 14.9996 83.065 14.9996C81.918 14.9996 80.958 15.3863 80.185 16.1596C79.412 16.9329 79.025 17.8796 79.025 18.9996C79.025 20.1196 79.412 21.0663 80.185 21.8396C80.958 22.6129 81.918 22.9996 83.065 22.9996Z" fill="white"/>
<path d="M99.4375 28.9996V8.95965H107.757V13.3196C108.343 11.8263 109.183 10.6796 110.277 9.87965C111.397 9.07965 112.797 8.67965 114.477 8.67965C116.13 8.67965 117.53 9.09295 118.677 9.91965C119.85 10.7196 120.678 11.7597 121.158 13.0396C122.064 11.6797 123.13 10.6129 124.357 9.83965C125.61 9.06635 127.118 8.67965 128.878 8.67965C131.358 8.67965 133.277 9.58635 134.637 11.3996C135.997 13.1863 136.677 15.7196 136.677 18.9996V28.9996H128.238V18.5596C128.238 16.1863 127.397 14.9996 125.717 14.9996C124.677 14.9996 123.837 15.4263 123.197 16.2796C122.583 17.1063 122.277 18.2263 122.277 19.6396V28.9996H113.837V18.5596C113.837 17.3063 113.623 16.3996 113.197 15.8396C112.77 15.2796 112.143 14.9996 111.317 14.9996C110.277 14.9996 109.438 15.4129 108.798 16.2396C108.184 17.0396 107.878 18.1729 107.878 19.6396V28.9996H99.4375ZM149.331 29.3196C147.491 29.3196 145.825 28.8796 144.331 27.9996C142.838 27.0929 141.652 25.8529 140.771 24.2796C139.918 22.7064 139.492 20.9063 139.492 18.8796C139.492 16.8529 139.918 15.0796 140.771 13.5596C141.652 12.0396 142.838 10.8529 144.331 9.99965C145.825 9.11965 147.491 8.67965 149.331 8.67965C150.638 8.67965 151.905 9.03965 153.132 9.75965C154.359 10.4796 155.305 11.6663 155.971 13.3196V8.95965H164.292V28.9996H155.891V25.2796C155.251 26.5863 154.398 27.5863 153.331 28.2796C152.265 28.9729 150.931 29.3196 149.331 29.3196ZM151.932 22.9996C153.026 22.9996 153.958 22.6129 154.731 21.8396C155.505 21.0396 155.891 20.0663 155.891 18.9196C155.891 17.7729 155.505 16.8397 154.731 16.1196C153.958 15.3729 153.026 14.9996 151.932 14.9996C150.786 14.9996 149.825 15.3863 149.051 16.1596C148.278 16.9329 147.891 17.8796 147.891 18.9996C147.891 20.1196 148.278 21.0663 149.051 21.8396C149.825 22.6129 150.786 22.9996 151.932 22.9996ZM176.865 29.3196C174.971 29.3196 173.424 28.9996 172.225 28.3596C171.05 27.7197 170.197 26.8529 169.664 25.7596C169.13 24.6663 168.865 23.4396 168.865 22.0796V13.9196H166.304V8.95965H169.464L173.184 2.63965H177.304V8.95965H181.945V13.9196H177.304V20.9196C177.304 21.5329 177.504 22.0129 177.904 22.3596C178.304 22.6796 178.824 22.8396 179.464 22.8396C180.104 22.8396 180.744 22.6796 181.384 22.3596L181.984 27.9196C181.344 28.3729 180.53 28.7196 179.544 28.9596C178.557 29.1996 177.665 29.3196 176.865 29.3196ZM196.917 23.7196C197.69 23.7196 198.502 23.6396 199.356 23.4796C200.236 23.3196 201.13 23.0264 202.036 22.5996L202.996 27.7596C202.009 28.2663 200.929 28.6529 199.757 28.9196C198.609 29.1863 197.289 29.3196 195.796 29.3196C193.102 29.3196 190.836 28.8796 188.996 27.9996C187.182 27.1196 185.809 25.9063 184.876 24.3596C183.942 22.813 183.477 21.0263 183.477 18.9996C183.477 16.9196 183.969 15.1063 184.956 13.5596C185.969 12.0129 187.316 10.8129 188.996 9.95965C190.676 9.10635 192.53 8.67965 194.557 8.67965C197.57 8.67965 199.877 9.62635 201.477 11.5196C203.076 13.3863 203.876 16.0529 203.876 19.5196L191.956 21.0396C192.836 22.8263 194.49 23.7196 196.917 23.7196ZM191.316 17.3596L197.596 16.0396C197.489 15.1863 197.196 14.5596 196.716 14.1596C196.236 13.7329 195.637 13.5196 194.917 13.5196C193.85 13.5196 192.996 13.8929 192.356 14.6396C191.742 15.3596 191.396 16.2663 191.316 17.3596Z" fill="#11E4C4"/>
</svg>
