<svg width="254" height="40" viewBox="0 0 254 40" fill="none" xmlns="http://www.w3.org/2000/svg">
<g clip-path="url(#clip0_443_36733)">
<path d="M20.4883 9.75659C20.4883 4.36817 24.8567 0 30.2451 0C35.6333 0 40.0015 4.36795 40.0015 9.7561C40.0015 15.1442 35.6335 19.5122 30.2454 19.5122H20.4883V9.75659Z" fill="white"/>
<path d="M20.4883 30.2439C20.4883 35.6323 24.8567 40.0005 30.2451 40.0005C35.6333 40.0005 40.0015 35.6325 40.0015 30.2444C40.0015 24.8563 35.6335 20.4883 30.2454 20.4883H20.4883V30.2439Z" fill="#11E4C4"/>
<path d="M19.5132 9.75659C19.5132 4.36817 15.1447 0 9.75634 0C4.3682 0 0 4.36795 0 9.7561C0 15.1442 4.36795 19.5122 9.7561 19.5122H19.5132V9.75659Z" fill="#11E4C4"/>
<path d="M19.5132 30.2439C19.5132 35.6323 15.1447 40.0005 9.75634 40.0005C4.3682 40.0005 0 35.6325 0 30.2444C0 24.8563 4.36795 20.4883 9.7561 20.4883H19.5132V30.2439Z" fill="#11E4C4"/>
<path d="M58.84 33.3196C57 33.3196 55.3333 32.8796 53.84 31.9996C52.3467 31.0929 51.16 29.8529 50.28 28.2796C49.4267 26.7063 49 24.9063 49 22.8796C49 20.8529 49.4267 19.0796 50.28 17.5596C51.16 16.0396 52.3467 14.8529 53.84 13.9996C55.3333 13.1196 57 12.6796 58.84 12.6796C60.1467 12.6796 61.4133 13.0396 62.64 13.7596C63.8667 14.4796 64.8133 15.6663 65.48 17.3196V12.9596H73.8V32.9996H65.4V29.2796C64.76 30.5863 63.9067 31.5863 62.84 32.2796C61.7733 32.9729 60.44 33.3196 58.84 33.3196ZM61.44 26.9996C62.5333 26.9996 63.4667 26.6129 64.24 25.8396C65.0133 25.0396 65.4 24.0663 65.4 22.9196C65.4 21.7729 65.0133 20.8396 64.24 20.1196C63.4667 19.3729 62.5333 18.9996 61.44 18.9996C60.2933 18.9996 59.3333 19.3863 58.56 20.1596C57.7867 20.9329 57.4 21.8796 57.4 22.9996C57.4 24.1196 57.7867 25.0663 58.56 25.8396C59.3333 26.6129 60.2933 26.9996 61.44 26.9996ZM85.6925 33.3196C83.7992 33.3196 82.2525 32.9996 81.0525 32.3596C79.8792 31.7196 79.0258 30.8529 78.4925 29.7596C77.9592 28.6663 77.6925 27.4396 77.6925 26.0796V5.83961L86.1325 4.59961V24.9196C86.1325 25.5329 86.3325 26.0129 86.7325 26.3596C87.1325 26.6796 87.6525 26.8396 88.2925 26.8396C88.9325 26.8396 89.5725 26.6796 90.2125 26.3596L90.8125 31.9196C90.1725 32.3729 89.3592 32.7196 88.3725 32.9596C87.3858 33.1996 86.4925 33.3196 85.6925 33.3196ZM107.773 33.3196C106.173 33.3196 104.839 32.9729 103.773 32.2796C102.706 31.5863 101.853 30.5863 101.213 29.2796V32.9996H92.8125V6.63961L101.293 5.39961V17.0796C101.933 15.5596 102.839 14.4529 104.013 13.7596C105.213 13.0396 106.466 12.6796 107.773 12.6796C109.639 12.6796 111.306 13.1196 112.773 13.9996C114.266 14.8529 115.439 16.0396 116.293 17.5596C117.173 19.0796 117.613 20.8529 117.613 22.8796C117.613 24.9063 117.173 26.7063 116.293 28.2796C115.439 29.8529 114.266 31.0929 112.773 31.9996C111.306 32.8796 109.639 33.3196 107.773 33.3196ZM105.173 26.9996C106.319 26.9996 107.279 26.6129 108.053 25.8396C108.826 25.0663 109.213 24.1196 109.213 22.9996C109.213 21.8796 108.826 20.9329 108.053 20.1596C107.279 19.3863 106.319 18.9996 105.173 18.9996C104.079 18.9996 103.146 19.3729 102.373 20.1196C101.599 20.8396 101.213 21.7729 101.213 22.9196C101.213 24.0663 101.599 25.0396 102.373 25.8396C103.146 26.6129 104.079 26.9996 105.173 26.9996ZM129.465 33.3196C127.625 33.3196 125.958 32.8796 124.465 31.9996C122.972 31.0929 121.785 29.8529 120.905 28.2796C120.052 26.7063 119.625 24.9063 119.625 22.8796C119.625 20.8529 120.052 19.0796 120.905 17.5596C121.785 16.0396 122.972 14.8529 124.465 13.9996C125.958 13.1196 127.625 12.6796 129.465 12.6796C130.772 12.6796 132.038 13.0396 133.265 13.7596C134.492 14.4796 135.438 15.6663 136.105 17.3196V12.9596H144.425V32.9996H136.025V29.2796C135.385 30.5863 134.532 31.5863 133.465 32.2796C132.398 32.9729 131.065 33.3196 129.465 33.3196ZM132.065 26.9996C133.158 26.9996 134.092 26.6129 134.865 25.8396C135.638 25.0396 136.025 24.0663 136.025 22.9196C136.025 21.7729 135.638 20.8396 134.865 20.1196C134.092 19.3729 133.158 18.9996 132.065 18.9996C130.918 18.9996 129.958 19.3863 129.185 20.1596C128.412 20.9329 128.025 21.8796 128.025 22.9996C128.025 24.1196 128.412 25.0663 129.185 25.8396C129.958 26.6129 130.918 26.9996 132.065 26.9996Z" fill="white"/>
<path d="M148.438 32.9996V12.9596H156.757V17.3196C157.343 15.8263 158.183 14.6796 159.277 13.8796C160.397 13.0796 161.797 12.6796 163.477 12.6796C165.13 12.6796 166.53 13.0929 167.677 13.9196C168.85 14.7196 169.678 15.7597 170.158 17.0396C171.064 15.6797 172.13 14.6129 173.357 13.8396C174.61 13.0663 176.118 12.6796 177.878 12.6796C180.358 12.6796 182.277 13.5863 183.637 15.3996C184.997 17.1863 185.677 19.7196 185.677 22.9996V32.9996H177.238V22.5596C177.238 20.1863 176.397 18.9996 174.717 18.9996C173.677 18.9996 172.837 19.4263 172.197 20.2796C171.583 21.1063 171.277 22.2263 171.277 23.6396V32.9996H162.837V22.5596C162.837 21.3063 162.623 20.3996 162.197 19.8396C161.77 19.2796 161.143 18.9996 160.317 18.9996C159.277 18.9996 158.438 19.4129 157.798 20.2396C157.184 21.0396 156.878 22.1729 156.878 23.6396V32.9996H148.438ZM198.331 33.3196C196.491 33.3196 194.825 32.8796 193.331 31.9996C191.838 31.0929 190.652 29.8529 189.771 28.2796C188.918 26.7064 188.492 24.9063 188.492 22.8796C188.492 20.8529 188.918 19.0796 189.771 17.5596C190.652 16.0396 191.838 14.8529 193.331 13.9996C194.825 13.1196 196.491 12.6796 198.331 12.6796C199.638 12.6796 200.905 13.0396 202.132 13.7596C203.359 14.4796 204.305 15.6663 204.971 17.3196V12.9596H213.292V32.9996H204.891V29.2796C204.251 30.5863 203.398 31.5863 202.331 32.2796C201.265 32.9729 199.931 33.3196 198.331 33.3196ZM200.932 26.9996C202.026 26.9996 202.958 26.6129 203.731 25.8396C204.505 25.0396 204.891 24.0663 204.891 22.9196C204.891 21.7729 204.505 20.8397 203.731 20.1196C202.958 19.3729 202.026 18.9996 200.932 18.9996C199.786 18.9996 198.825 19.3863 198.051 20.1596C197.278 20.9329 196.891 21.8796 196.891 22.9996C196.891 24.1196 197.278 25.0663 198.051 25.8396C198.825 26.6129 199.786 26.9996 200.932 26.9996ZM225.865 33.3196C223.971 33.3196 222.424 32.9996 221.225 32.3596C220.05 31.7197 219.197 30.8529 218.664 29.7596C218.13 28.6663 217.865 27.4396 217.865 26.0796V17.9196H215.304V12.9596H218.464L222.184 6.63965H226.304V12.9596H230.945V17.9196H226.304V24.9196C226.304 25.5329 226.504 26.0129 226.904 26.3596C227.304 26.6796 227.824 26.8396 228.464 26.8396C229.104 26.8396 229.744 26.6796 230.384 26.3596L230.984 31.9196C230.344 32.3729 229.53 32.7196 228.544 32.9596C227.557 33.1996 226.665 33.3196 225.865 33.3196ZM245.917 27.7196C246.69 27.7196 247.502 27.6396 248.356 27.4796C249.236 27.3196 250.13 27.0264 251.036 26.5996L251.996 31.7596C251.009 32.2663 249.929 32.6529 248.757 32.9196C247.609 33.1863 246.289 33.3196 244.796 33.3196C242.102 33.3196 239.836 32.8796 237.996 31.9996C236.182 31.1196 234.809 29.9063 233.876 28.3596C232.942 26.813 232.477 25.0263 232.477 22.9996C232.477 20.9196 232.969 19.1063 233.956 17.5596C234.969 16.0129 236.316 14.8129 237.996 13.9596C239.676 13.1063 241.53 12.6796 243.557 12.6796C246.57 12.6796 248.877 13.6263 250.477 15.5196C252.076 17.3863 252.876 20.0529 252.876 23.5196L240.956 25.0396C241.836 26.8263 243.49 27.7196 245.917 27.7196ZM240.316 21.3596L246.596 20.0396C246.489 19.1863 246.196 18.5596 245.716 18.1596C245.236 17.7329 244.637 17.5196 243.917 17.5196C242.85 17.5196 241.996 17.8929 241.356 18.6396C240.742 19.3596 240.396 20.2663 240.316 21.3596Z" fill="#11E4C4"/>
</g>
<defs>
<clipPath id="clip0_443_36733">
<rect width="254" height="40" fill="white"/>
</clipPath>
</defs>
</svg>
