<svg width="204" height="30" viewBox="0 0 204 30" fill="none" xmlns="http://www.w3.org/2000/svg">
<path d="M9.84195 29.3196C8.00195 29.3196 6.33525 28.8796 4.84195 27.9996C3.34855 27.0929 2.16196 25.8529 1.28196 24.2796C0.428556 22.7063 0.00195312 20.9063 0.00195312 18.8796C0.00195312 16.8529 0.428556 15.0796 1.28196 13.5596C2.16196 12.0396 3.34855 10.8529 4.84195 9.99961C6.33525 9.11961 8.00195 8.67961 9.84195 8.67961C11.1486 8.67961 12.4153 9.03961 13.642 9.75961C14.8686 10.4796 15.8153 11.6663 16.482 13.3196V8.95961H24.802V28.9996H16.402V25.2796C15.762 26.5863 14.9086 27.5863 13.842 28.2796C12.7753 28.9729 11.442 29.3196 9.84195 29.3196ZM12.442 22.9996C13.5353 22.9996 14.4686 22.6129 15.242 21.8396C16.0153 21.0396 16.402 20.0663 16.402 18.9196C16.402 17.7729 16.0153 16.8396 15.242 16.1196C14.4686 15.3729 13.5353 14.9996 12.442 14.9996C11.2953 14.9996 10.3353 15.3863 9.56195 16.1596C8.78855 16.9329 8.40195 17.8796 8.40195 18.9996C8.40195 20.1196 8.78855 21.0663 9.56195 21.8396C10.3353 22.6129 11.2953 22.9996 12.442 22.9996ZM36.6945 29.3196C34.8011 29.3196 33.2545 28.9996 32.0545 28.3596C30.8811 27.7196 30.0278 26.8529 29.4945 25.7596C28.9611 24.6663 28.6945 23.4396 28.6945 22.0796V1.83961L37.1345 0.599609V20.9196C37.1345 21.5329 37.3344 22.0129 37.7345 22.3596C38.1345 22.6796 38.6545 22.8396 39.2945 22.8396C39.9345 22.8396 40.5745 22.6796 41.2145 22.3596L41.8145 27.9196C41.1745 28.3729 40.361 28.7196 39.3745 28.9596C38.3878 29.1996 37.4945 29.3196 36.6945 29.3196ZM58.774 29.3196C57.174 29.3196 55.841 28.9729 54.774 28.2796C53.708 27.5863 52.854 26.5863 52.214 25.2796V28.9996H43.8145V2.63961L52.294 1.39961V13.0796C52.934 11.5596 53.841 10.4529 55.014 9.75961C56.214 9.03961 57.468 8.67961 58.774 8.67961C60.641 8.67961 62.308 9.11961 63.774 9.99961C65.268 10.8529 66.441 12.0396 67.294 13.5596C68.174 15.0796 68.614 16.8529 68.614 18.8796C68.614 20.9063 68.174 22.7063 67.294 24.2796C66.441 25.8529 65.268 27.0929 63.774 27.9996C62.308 28.8796 60.641 29.3196 58.774 29.3196ZM56.174 22.9996C57.321 22.9996 58.281 22.6129 59.054 21.8396C59.828 21.0663 60.214 20.1196 60.214 18.9996C60.214 17.8796 59.828 16.9329 59.054 16.1596C58.281 15.3863 57.321 14.9996 56.174 14.9996C55.081 14.9996 54.148 15.3729 53.374 16.1196C52.601 16.8396 52.214 17.7729 52.214 18.9196C52.214 20.0663 52.601 21.0396 53.374 21.8396C54.148 22.6129 55.081 22.9996 56.174 22.9996ZM80.4669 29.3196C78.627 29.3196 76.96 28.8796 75.467 27.9996C73.974 27.0929 72.7869 25.8529 71.907 24.2796C71.054 22.7063 70.627 20.9063 70.627 18.8796C70.627 16.8529 71.054 15.0796 71.907 13.5596C72.7869 12.0396 73.974 10.8529 75.467 9.99961C76.96 9.11961 78.627 8.67961 80.4669 8.67961C81.7739 8.67961 83.04 9.03961 84.267 9.75961C85.4939 10.4796 86.4399 11.6663 87.1069 13.3196V8.95961H95.427V28.9996H87.0269V25.2796C86.3869 26.5863 85.534 27.5863 84.4669 28.2796C83.3999 28.9729 82.0669 29.3196 80.4669 29.3196ZM83.067 22.9996C84.16 22.9996 85.094 22.6129 85.867 21.8396C86.64 21.0396 87.0269 20.0663 87.0269 18.9196C87.0269 17.7729 86.64 16.8396 85.867 16.1196C85.094 15.3729 84.16 14.9996 83.067 14.9996C81.92 14.9996 80.96 15.3863 80.187 16.1596C79.4139 16.9329 79.0269 17.8796 79.0269 18.9996C79.0269 20.1196 79.4139 21.0663 80.187 21.8396C80.96 22.6129 81.92 22.9996 83.067 22.9996ZM99.4389 28.9996V8.95961H107.759V13.3196C108.346 11.8263 109.186 10.6796 110.279 9.87961C111.399 9.07961 112.799 8.67961 114.479 8.67961C116.133 8.67961 117.533 9.09291 118.679 9.91961C119.853 10.7196 120.679 11.7596 121.159 13.0396C122.066 11.6796 123.133 10.6129 124.359 9.83961C125.613 9.06631 127.119 8.67961 128.879 8.67961C131.359 8.67961 133.279 9.58631 134.639 11.3996C135.999 13.1863 136.679 15.7196 136.679 18.9996V28.9996H128.239V18.5596C128.239 16.1863 127.399 14.9996 125.719 14.9996C124.679 14.9996 123.839 15.4263 123.199 16.2796C122.586 17.1063 122.279 18.2263 122.279 19.6396V28.9996H113.839V18.5596C113.839 17.3063 113.626 16.3996 113.199 15.8396C112.773 15.2796 112.146 14.9996 111.319 14.9996C110.279 14.9996 109.439 15.4129 108.799 16.2396C108.186 17.0396 107.879 18.1729 107.879 19.6396V28.9996H99.4389ZM149.334 29.3196C147.494 29.3196 145.827 28.8796 144.334 27.9996C142.841 27.0929 141.654 25.8529 140.774 24.2796C139.921 22.7063 139.494 20.9063 139.494 18.8796C139.494 16.8529 139.921 15.0796 140.774 13.5596C141.654 12.0396 142.841 10.8529 144.334 9.99961C145.827 9.11961 147.494 8.67961 149.334 8.67961C150.641 8.67961 151.907 9.03961 153.134 9.75961C154.361 10.4796 155.307 11.6663 155.974 13.3196V8.95961H164.294V28.9996H155.894V25.2796C155.254 26.5863 154.401 27.5863 153.334 28.2796C152.267 28.9729 150.934 29.3196 149.334 29.3196ZM151.934 22.9996C153.027 22.9996 153.961 22.6129 154.734 21.8396C155.507 21.0396 155.894 20.0663 155.894 18.9196C155.894 17.7729 155.507 16.8396 154.734 16.1196C153.961 15.3729 153.027 14.9996 151.934 14.9996C150.787 14.9996 149.827 15.3863 149.054 16.1596C148.281 16.9329 147.894 17.8796 147.894 18.9996C147.894 20.1196 148.281 21.0663 149.054 21.8396C149.827 22.6129 150.787 22.9996 151.934 22.9996ZM176.867 29.3196C174.973 29.3196 173.427 28.9996 172.227 28.3596C171.053 27.7196 170.2 26.8529 169.667 25.7596C169.133 24.6663 168.867 23.4396 168.867 22.0796V13.9196H166.307V8.95961H169.467L173.187 2.63961H177.307V8.95961H181.947V13.9196H177.307V20.9196C177.307 21.5329 177.507 22.0129 177.907 22.3596C178.307 22.6796 178.827 22.8396 179.467 22.8396C180.107 22.8396 180.747 22.6796 181.387 22.3596L181.987 27.9196C181.347 28.3729 180.533 28.7196 179.547 28.9596C178.56 29.1996 177.667 29.3196 176.867 29.3196ZM196.919 23.7196C197.692 23.7196 198.505 23.6396 199.359 23.4796C200.239 23.3196 201.132 23.0263 202.039 22.5996L202.999 27.7596C202.012 28.2663 200.932 28.6529 199.759 28.9196C198.612 29.1863 197.292 29.3196 195.799 29.3196C193.105 29.3196 190.839 28.8796 188.999 27.9996C187.185 27.1196 185.812 25.9063 184.879 24.3596C183.945 22.8129 183.479 21.0263 183.479 18.9996C183.479 16.9196 183.972 15.1063 184.959 13.5596C185.972 12.0129 187.319 10.8129 188.999 9.95961C190.679 9.10631 192.532 8.67961 194.559 8.67961C197.572 8.67961 199.879 9.62631 201.479 11.5196C203.079 13.3863 203.879 16.0529 203.879 19.5196L191.959 21.0396C192.839 22.8263 194.492 23.7196 196.919 23.7196ZM191.319 17.3596L197.599 16.0396C197.492 15.1863 197.199 14.5596 196.719 14.1596C196.239 13.7329 195.639 13.5196 194.919 13.5196C193.852 13.5196 192.999 13.8929 192.359 14.6396C191.745 15.3596 191.399 16.2663 191.319 17.3596Z" fill="#11E4C4"/>
</svg>
