<svg width="40" height="40" viewBox="0 0 40 40" fill="none" xmlns="http://www.w3.org/2000/svg">
<g clip-path="url(#clip0_443_36747)">
<path d="M20.4883 9.75659C20.4883 4.36817 24.8567 0 30.2451 0C35.6333 0 40.0015 4.36795 40.0015 9.7561C40.0015 15.1442 35.6335 19.5122 30.2454 19.5122H20.4883V9.75659Z" fill="white"/>
<path d="M20.4883 30.2439C20.4883 35.6323 24.8567 40.0005 30.2451 40.0005C35.6333 40.0005 40.0015 35.6325 40.0015 30.2444C40.0015 24.8563 35.6335 20.4883 30.2454 20.4883H20.4883V30.2439Z" fill="#11E4C4"/>
<path d="M19.5132 9.75659C19.5132 4.36817 15.1447 0 9.75634 0C4.3682 0 0 4.36795 0 9.7561C0 15.1442 4.36795 19.5122 9.7561 19.5122H19.5132V9.75659Z" fill="#11E4C4"/>
<path d="M19.5132 30.2439C19.5132 35.6323 15.1447 40.0005 9.75634 40.0005C4.3682 40.0005 0 35.6325 0 30.2444C0 24.8563 4.36795 20.4883 9.7561 20.4883H19.5132V30.2439Z" fill="#11E4C4"/>
</g>
<defs>
<clipPath id="clip0_443_36747">
<rect width="40" height="40" fill="white"/>
</clipPath>
</defs>
</svg>
